<svg width="802" height="507" viewBox="0 0 802 507" fill="none" xmlns="http://www.w3.org/2000/svg">
<g clip-path="url(#clip0_8:202)">
<path d="M510.051 158.619C511.564 142.312 515.742 126.364 522.419 111.413C524.279 107.252 526.328 103.182 528.563 99.2048C528.675 98.9968 528.702 98.7533 528.638 98.5257C528.574 98.2982 528.425 98.1043 528.221 97.985C528.017 97.8657 527.775 97.8304 527.546 97.8864C527.316 97.9424 527.117 98.0855 526.991 98.2853C518.862 112.773 513.167 128.499 510.134 144.836C509.29 149.398 508.656 153.992 508.231 158.619C508.123 159.786 509.944 159.778 510.051 158.619Z" fill="#E6E6E6"/>
<path d="M532.971 102.127C539.337 102.127 544.498 96.9608 544.498 90.5885C544.498 84.2161 539.337 79.0503 532.971 79.0503C526.605 79.0503 521.444 84.2161 521.444 90.5885C521.444 96.9608 526.605 102.127 532.971 102.127Z" fill="#E6E6E6"/>
<path d="M511.23 158.925C512.212 148.346 514.922 138 519.254 128.3C520.461 125.601 521.789 122.961 523.24 120.381C523.312 120.246 523.33 120.088 523.288 119.94C523.247 119.792 523.15 119.667 523.018 119.589C522.886 119.512 522.728 119.489 522.58 119.525C522.431 119.562 522.302 119.654 522.22 119.784C516.946 129.183 513.252 139.385 511.284 149.984C510.736 152.943 510.325 155.924 510.05 158.925C509.98 159.682 511.161 159.678 511.23 158.925Z" fill="#E6E6E6"/>
<path d="M526.1 122.276C530.23 122.276 533.578 118.925 533.578 114.791C533.578 110.657 530.23 107.305 526.1 107.305C521.969 107.305 518.621 110.657 518.621 114.791C518.621 118.925 521.969 122.276 526.1 122.276Z" fill="#E6E6E6"/>
<path d="M509.74 158.219C504.013 149.273 499.793 139.447 497.248 129.132C496.541 126.261 495.966 123.361 495.524 120.434C495.499 120.282 495.416 120.147 495.292 120.056C495.169 119.965 495.015 119.926 494.863 119.946C494.711 119.966 494.573 120.045 494.478 120.165C494.383 120.286 494.339 120.438 494.354 120.591C495.971 131.248 499.327 141.567 504.288 151.135C505.675 153.806 507.182 156.409 508.809 158.946C509.219 159.586 510.147 158.855 509.74 158.219Z" fill="#E6E6E6"/>
<path d="M494.344 121.751C498.475 121.751 501.823 118.399 501.823 114.265C501.823 110.131 498.475 106.78 494.344 106.78C490.214 106.78 486.866 110.131 486.866 114.265C486.866 118.399 490.214 121.751 494.344 121.751Z" fill="#E6E6E6"/>
<path d="M486.782 164.841V150.134C486.784 148.672 487.365 147.27 488.398 146.236C489.431 145.202 490.831 144.621 492.292 144.619H526.576C528.037 144.621 529.437 145.202 530.47 146.236C531.503 147.27 532.084 148.672 532.086 150.134V164.841C532.084 166.304 531.503 167.705 530.47 168.739C529.437 169.773 528.037 170.355 526.576 170.357H492.292C490.831 170.355 489.431 169.773 488.398 168.739C487.365 167.705 486.784 166.304 486.782 164.841Z" fill="#F2F2F2"/>
<path d="M525.352 71.084H510.659C509.198 71.0824 507.797 70.5008 506.764 69.4669C505.731 68.4329 505.15 67.0311 505.149 65.5689V5.51514C505.15 4.05294 505.731 2.65112 506.764 1.61718C507.797 0.583253 509.198 0.00164787 510.659 0H525.352C526.813 0.00164787 528.213 0.583253 529.246 1.61718C530.279 2.65112 530.86 4.05294 530.862 5.51514V65.5689C530.86 67.0311 530.279 68.4329 529.246 69.4669C528.213 70.5008 526.813 71.0824 525.352 71.084Z" fill="#F2F2F2"/>
<path d="M530.249 11.6431H505.761V16.5454H530.249V11.6431Z" fill="#CCCCCC"/>
<path d="M530.249 49.6363H505.761V54.5386H530.249V49.6363Z" fill="#CCCCCC"/>
<path d="M562.085 71.084H547.391C545.931 71.0824 544.53 70.5008 543.497 69.4669C542.464 68.4329 541.883 67.0311 541.882 65.5689V5.51514C541.883 4.05294 542.464 2.65112 543.497 1.61718C544.53 0.583253 545.931 0.00164787 547.391 0H562.085C563.545 0.00164787 564.946 0.583253 565.979 1.61718C567.012 2.65112 567.593 4.05294 567.595 5.51514V65.5689C567.593 67.0311 567.012 68.4329 565.979 69.4669C564.946 70.5008 563.545 71.0824 562.085 71.084Z" fill="#F2F2F2"/>
<path d="M566.982 11.6431H542.494V16.5454H566.982V11.6431Z" fill="#CCCCCC"/>
<path d="M566.982 49.6363H542.494V54.5386H566.982V49.6363Z" fill="#CCCCCC"/>
<path d="M598.817 71.084H584.124C582.663 71.0824 581.263 70.5008 580.23 69.4669C579.197 68.4329 578.616 67.0311 578.614 65.5689V5.51514C578.616 4.05294 579.197 2.65112 580.23 1.61718C581.263 0.583253 582.663 0.00164787 584.124 0H598.817C600.278 0.00164787 601.679 0.583253 602.712 1.61718C603.745 2.65112 604.326 4.05294 604.327 5.51514V65.5689C604.326 67.0311 603.745 68.4329 602.712 69.4669C601.679 70.5008 600.278 71.0824 598.817 71.084Z" fill="#F2F2F2"/>
<path d="M603.715 11.6431H579.227V16.5454H603.715V11.6431Z" fill="#CCCCCC"/>
<path d="M603.715 49.6363H579.227V54.5386H603.715V49.6363Z" fill="#CCCCCC"/>
<path d="M618.408 170.357H603.715C602.254 170.355 600.854 169.773 599.821 168.739C598.788 167.705 598.207 166.304 598.205 164.841V104.788C598.207 103.325 598.788 101.924 599.821 100.89C600.854 99.8557 602.254 99.2742 603.715 99.2725H618.408C619.869 99.2742 621.269 99.8557 622.302 100.89C623.335 101.924 623.916 103.325 623.918 104.788V164.841C623.916 166.304 623.335 167.705 622.302 168.739C621.269 169.773 619.869 170.355 618.408 170.357Z" fill="#F2F2F2"/>
<path d="M623.306 110.916H598.817V115.818H623.306V110.916Z" fill="#CCCCCC"/>
<path d="M623.306 148.909H598.817V153.811H623.306V148.909Z" fill="#CCCCCC"/>
<path d="M655.141 170.357H640.448C638.987 170.355 637.587 169.773 636.554 168.739C635.521 167.705 634.94 166.304 634.938 164.841V104.788C634.94 103.325 635.521 101.924 636.554 100.89C637.587 99.8557 638.987 99.2742 640.448 99.2725H655.141C656.602 99.2742 658.002 99.8557 659.035 100.89C660.068 101.924 660.649 103.325 660.651 104.788V164.841C660.649 166.304 660.068 167.705 659.035 168.739C658.002 169.773 656.602 170.355 655.141 170.357Z" fill="#F2F2F2"/>
<path d="M660.039 110.916H635.55V115.818H660.039V110.916Z" fill="#CCCCCC"/>
<path d="M660.039 148.909H635.55V153.811H660.039V148.909Z" fill="#CCCCCC"/>
<path d="M691.874 170.357H677.181C675.72 170.355 674.319 169.773 673.286 168.739C672.253 167.705 671.672 166.304 671.671 164.841V104.788C671.672 103.325 672.253 101.924 673.286 100.89C674.319 99.8557 675.72 99.2742 677.181 99.2725H691.874C693.335 99.2742 694.735 99.8557 695.768 100.89C696.801 101.924 697.382 103.325 697.384 104.788V164.841C697.382 166.304 696.801 167.705 695.768 168.739C694.735 169.773 693.335 170.355 691.874 170.357Z" fill="#F2F2F2"/>
<path d="M696.772 110.916H672.283V115.818H696.772V110.916Z" fill="#CCCCCC"/>
<path d="M696.772 148.909H672.283V153.811H696.772V148.909Z" fill="#CCCCCC"/>
<path d="M521.678 269.629H506.985C505.525 269.627 504.124 269.046 503.091 268.012C502.058 266.978 501.477 265.576 501.475 264.114V204.06C501.477 202.598 502.058 201.196 503.091 200.162C504.124 199.128 505.525 198.547 506.985 198.545H521.678C523.139 198.547 524.54 199.128 525.573 200.162C526.606 201.196 527.187 202.598 527.188 204.06V264.114C527.187 265.576 526.606 266.978 525.573 268.012C524.54 269.046 523.139 269.627 521.678 269.629Z" fill="#F2F2F2"/>
<path d="M526.576 210.188H502.088V215.09H526.576V210.188Z" fill="#CCCCCC"/>
<path d="M526.576 248.181H502.088V253.084H526.576V248.181Z" fill="#CCCCCC"/>
<path d="M558.411 269.629H543.718C542.257 269.627 540.857 269.046 539.824 268.012C538.791 266.978 538.21 265.576 538.208 264.114V204.06C538.21 202.598 538.791 201.196 539.824 200.162C540.857 199.128 542.257 198.547 543.718 198.545H558.411C559.872 198.547 561.273 199.128 562.306 200.162C563.339 201.196 563.92 202.598 563.921 204.06V264.114C563.92 265.576 563.339 266.978 562.306 268.012C561.273 269.046 559.872 269.627 558.411 269.629Z" fill="#F2F2F2"/>
<path d="M563.309 210.188H538.82V215.09H563.309V210.188Z" fill="#CCCCCC"/>
<path d="M563.309 248.181H538.82V253.084H563.309V248.181Z" fill="#CCCCCC"/>
<path d="M595.144 269.629H580.451C578.99 269.627 577.59 269.046 576.557 268.012C575.524 266.978 574.943 265.576 574.941 264.114V204.06C574.943 202.598 575.524 201.196 576.557 200.162C577.59 199.128 578.99 198.547 580.451 198.545H595.144C596.605 198.547 598.005 199.128 599.038 200.162C600.071 201.196 600.652 202.598 600.654 204.06V264.114C600.652 265.576 600.071 266.978 599.038 268.012C598.005 269.046 596.605 269.627 595.144 269.629Z" fill="#F2F2F2"/>
<path d="M600.042 210.188H575.553V215.09H600.042V210.188Z" fill="#CCCCCC"/>
<path d="M600.042 248.181H575.553V253.084H600.042V248.181Z" fill="#CCCCCC"/>
<path d="M635.55 71.084H620.857C619.396 71.0824 617.996 70.5008 616.963 69.4669C615.93 68.4329 615.349 67.0311 615.347 65.5689V5.51514C615.349 4.05294 615.93 2.65112 616.963 1.61718C617.996 0.583253 619.396 0.00164787 620.857 0H635.55C637.011 0.00164787 638.412 0.583253 639.444 1.61718C640.477 2.65112 641.058 4.05294 641.06 5.51514V65.5689C641.058 67.0311 640.477 68.4329 639.444 69.4669C638.412 70.5008 637.011 71.0824 635.55 71.084Z" fill="#F2F2F2"/>
<path d="M640.448 11.6431H615.959V16.5454H640.448V11.6431Z" fill="#CCCCCC"/>
<path d="M640.448 49.6363H615.959V54.5386H640.448V49.6363Z" fill="#CCCCCC"/>
<path d="M672.283 71.084H657.59C656.129 71.0824 654.729 70.5008 653.696 69.4669C652.663 68.4329 652.082 67.0311 652.08 65.5689V5.51514C652.082 4.05294 652.663 2.65112 653.696 1.61718C654.729 0.583253 656.129 0.00164787 657.59 0H672.283C673.744 0.00164787 675.144 0.583253 676.177 1.61718C677.21 2.65112 677.791 4.05294 677.793 5.51514V65.5689C677.791 67.0311 677.21 68.4329 676.177 69.4669C675.144 70.5008 673.744 71.0824 672.283 71.084Z" fill="#F2F2F2"/>
<path d="M677.181 11.6431H652.692V16.5454H677.181V11.6431Z" fill="#CCCCCC"/>
<path d="M677.181 49.6363H652.692V54.5386H677.181V49.6363Z" fill="#CCCCCC"/>
<path d="M709.016 71.084H694.323C692.862 71.0824 691.461 70.5008 690.428 69.4669C689.395 68.4329 688.814 67.0311 688.813 65.5689V5.51514C688.814 4.05294 689.395 2.65112 690.428 1.61718C691.461 0.583253 692.862 0.00164787 694.323 0H709.016C710.477 0.00164787 711.877 0.583253 712.91 1.61718C713.943 2.65112 714.524 4.05294 714.526 5.51514V65.5689C714.524 67.0311 713.943 68.4329 712.91 69.4669C711.877 70.5008 710.477 71.0824 709.016 71.084Z" fill="#F2F2F2"/>
<path d="M713.914 11.6431H689.425V16.5454H713.914V11.6431Z" fill="#CCCCCC"/>
<path d="M713.914 49.6363H689.425V54.5386H713.914V49.6363Z" fill="#CCCCCC"/>
<path d="M745.749 71.084H731.056C729.595 71.0824 728.194 70.5008 727.161 69.4669C726.128 68.4329 725.547 67.0311 725.546 65.5689V5.51514C725.547 4.05294 726.128 2.65112 727.161 1.61718C728.194 0.583253 729.595 0.00164787 731.056 0H745.749C747.21 0.00164787 748.61 0.583253 749.643 1.61718C750.676 2.65112 751.257 4.05294 751.259 5.51514V65.5689C751.257 67.0311 750.676 68.4329 749.643 69.4669C748.61 70.5008 747.21 71.0824 745.749 71.084Z" fill="#F2F2F2"/>
<path d="M750.646 11.6431H726.158V16.5454H750.646V11.6431Z" fill="#CCCCCC"/>
<path d="M750.646 49.6363H726.158V54.5386H750.646V49.6363Z" fill="#CCCCCC"/>
<path d="M800.776 72.9224H451.814C451.489 72.9224 451.178 72.7933 450.948 72.5634C450.718 72.3336 450.589 72.0219 450.589 71.6968C450.589 71.3718 450.718 71.06 450.948 70.8302C451.178 70.6003 451.489 70.4712 451.814 70.4712H800.776C801.1 70.4712 801.412 70.6003 801.641 70.8302C801.871 71.06 802 71.3718 802 71.6968C802 72.0219 801.871 72.3336 801.641 72.5634C801.412 72.7933 801.1 72.9224 800.776 72.9224Z" fill="#CCCCCC"/>
<path d="M800.776 172.195H451.814C451.489 172.195 451.178 172.066 450.948 171.836C450.718 171.606 450.589 171.294 450.589 170.969C450.589 170.644 450.718 170.333 450.948 170.103C451.178 169.873 451.489 169.744 451.814 169.744H800.776C801.1 169.744 801.412 169.873 801.641 170.103C801.871 170.333 802 170.644 802 170.969C802 171.294 801.871 171.606 801.641 171.836C801.412 172.066 801.1 172.195 800.776 172.195Z" fill="#CCCCCC"/>
<path d="M800.776 271.467H451.814C451.489 271.467 451.178 271.338 450.948 271.108C450.718 270.879 450.589 270.567 450.589 270.242C450.589 269.917 450.718 269.605 450.948 269.375C451.178 269.145 451.489 269.016 451.814 269.016H800.776C801.1 269.016 801.412 269.145 801.641 269.375C801.871 269.605 802 269.917 802 270.242C802 270.567 801.871 270.879 801.641 271.108C801.412 271.338 801.1 271.467 800.776 271.467Z" fill="#CCCCCC"/>
<path d="M712.082 257.891C713.594 241.584 717.772 225.637 724.449 210.685C726.31 206.524 728.358 202.455 730.593 198.477C730.706 198.269 730.733 198.026 730.669 197.798C730.605 197.571 730.455 197.377 730.251 197.257C730.048 197.138 729.805 197.103 729.576 197.159C729.347 197.215 729.148 197.358 729.022 197.558C720.892 212.045 715.197 227.772 712.164 244.108C711.32 248.671 710.686 253.265 710.262 257.891C710.154 259.058 711.974 259.051 712.082 257.891Z" fill="#E6E6E6"/>
<path d="M735.002 201.399C741.368 201.399 746.529 196.233 746.529 189.861C746.529 183.489 741.368 178.323 735.002 178.323C728.635 178.323 723.474 183.489 723.474 189.861C723.474 196.233 728.635 201.399 735.002 201.399Z" fill="#E6E6E6"/>
<path d="M713.261 258.198C714.242 247.619 716.953 237.273 721.284 227.573C722.491 224.874 723.82 222.234 725.27 219.653C725.343 219.518 725.36 219.36 725.319 219.213C725.278 219.065 725.181 218.939 725.048 218.862C724.916 218.785 724.759 218.762 724.61 218.798C724.461 218.834 724.332 218.927 724.251 219.057C718.977 228.455 715.282 238.658 713.314 249.256C712.767 252.216 712.355 255.196 712.08 258.198C712.01 258.955 713.191 258.95 713.261 258.198Z" fill="#E6E6E6"/>
<path d="M728.13 221.549C732.26 221.549 735.608 218.197 735.608 214.063C735.608 209.929 732.26 206.578 728.13 206.578C724 206.578 720.652 209.929 720.652 214.063C720.652 218.197 724 221.549 728.13 221.549Z" fill="#E6E6E6"/>
<path d="M711.77 257.491C706.044 248.546 701.823 238.719 699.278 228.405C698.572 225.533 697.997 222.634 697.555 219.706C697.529 219.555 697.446 219.419 697.323 219.328C697.199 219.238 697.046 219.198 696.894 219.218C696.742 219.239 696.604 219.318 696.509 219.438C696.414 219.558 696.369 219.711 696.384 219.863C698.001 230.521 701.357 240.84 706.318 250.408C707.705 253.079 709.212 255.682 710.839 258.218C711.249 258.858 712.178 258.127 711.77 257.491Z" fill="#E6E6E6"/>
<path d="M696.375 221.023C700.505 221.023 703.853 217.672 703.853 213.538C703.853 209.404 700.505 206.053 696.375 206.053C692.245 206.053 688.897 209.404 688.897 213.538C688.897 217.672 692.245 221.023 696.375 221.023Z" fill="#E6E6E6"/>
<path d="M688.813 264.114V249.407C688.814 247.945 689.395 246.543 690.428 245.509C691.461 244.475 692.862 243.893 694.323 243.892H728.607C730.067 243.893 731.468 244.475 732.501 245.509C733.534 246.543 734.115 247.945 734.117 249.407V264.114C734.115 265.576 733.534 266.978 732.501 268.012C731.468 269.046 730.067 269.627 728.607 269.629H694.323C692.862 269.627 691.461 269.046 690.428 268.012C689.395 266.978 688.814 265.576 688.813 264.114Z" fill="#F2F2F2"/>
<path d="M467.731 445.501H1.22443C0.899689 445.501 0.588269 445.372 0.358644 445.142C0.12902 444.912 0 444.6 0 444.275C0 443.95 0.12902 443.638 0.358644 443.408C0.588269 443.179 0.899689 443.049 1.22443 443.049H467.731C468.056 443.049 468.367 443.179 468.597 443.408C468.827 443.638 468.956 443.95 468.956 444.275C468.956 444.6 468.827 444.912 468.597 445.142C468.367 445.372 468.056 445.501 467.731 445.501Z" fill="#8D99AE"/>
<path d="M243.733 284.949C261.992 284.949 276.793 270.134 276.793 251.858C276.793 233.582 261.992 218.767 243.733 218.767C225.475 218.767 210.674 233.582 210.674 251.858C210.674 270.134 225.475 284.949 243.733 284.949Z" fill="#2B2D42"/>
<path d="M212.322 464.284L211.446 449.285L268.83 438.764L270.123 460.903L212.322 464.284Z" fill="#FFB8B8"/>
<path d="M215.102 438.32L216.791 467.248L198.594 468.313L195.841 421.171C198.231 421.031 200.625 421.364 202.886 422.15C205.147 422.936 207.231 424.16 209.02 425.753C210.808 427.345 212.266 429.275 213.31 431.431C214.353 433.587 214.962 435.928 215.102 438.32Z" fill="#2B2D42"/>
<path d="M237.281 464.147L227.748 475.754L178.482 444.479L192.55 427.347L237.281 464.147Z" fill="#FFB8B8"/>
<path d="M217.627 481.32L236.009 458.934L250.091 470.519L220.134 507C218.285 505.479 216.753 503.608 215.626 501.494C214.5 499.38 213.8 497.064 213.567 494.68C213.334 492.295 213.573 489.888 214.269 487.596C214.966 485.303 216.107 483.171 217.627 481.32Z" fill="#2B2D42"/>
<path d="M209.851 410.167L203.337 440.903C203.187 441.611 203.195 442.343 203.361 443.047C203.527 443.751 203.847 444.41 204.298 444.976C204.748 445.541 205.318 446 205.967 446.32C206.615 446.639 207.326 446.811 208.049 446.822L272.084 447.856C272.806 447.868 273.521 447.72 274.179 447.422C274.837 447.125 275.421 446.685 275.889 446.135C276.358 445.586 276.699 444.939 276.889 444.242C277.078 443.545 277.112 442.814 276.986 442.102L271.385 410.332C271.185 409.197 270.592 408.169 269.71 407.429C268.828 406.688 267.713 406.282 266.562 406.282H214.642C213.519 406.282 212.431 406.668 211.559 407.375C210.686 408.082 210.083 409.068 209.851 410.167Z" fill="#2B2D42"/>
<path d="M220.469 420.989C220.469 420.989 158.023 381.77 145.779 402.605C139.657 413.023 142.718 423.134 147.31 430.64C151.571 437.475 157.687 442.955 164.945 446.44L215.572 471.238L233.938 451.629L221.694 440.598L220.469 420.989Z" fill="#2B2D42"/>
<path d="M252.304 414.861C252.304 414.861 333.117 391.575 317.199 435.696C301.282 479.817 241.285 462.659 241.285 462.659L235.162 444.275L255.978 429.568L252.304 414.861Z" fill="#2B2D42"/>
<path d="M244.148 289.516C260.757 289.516 274.221 276.039 274.221 259.414C274.221 242.789 260.757 229.313 244.148 229.313C227.539 229.313 214.075 242.789 214.075 259.414C214.075 276.039 227.539 289.516 244.148 289.516Z" fill="#FFB8B8"/>
<path d="M245.724 419.725C233.227 419.536 220.795 417.896 208.676 414.84L208.318 414.741L191.536 337.474C190.027 330.685 191.053 323.577 194.422 317.493C197.791 311.409 203.268 306.77 209.821 304.453C230.06 297.184 252.12 296.743 272.633 303.197H272.634C279.517 305.418 285.31 310.154 288.859 316.461C292.407 322.768 293.45 330.183 291.778 337.225L273.034 414.677L272.77 414.802C264.98 418.496 255.239 419.725 245.724 419.725Z" fill="#CCCCCC"/>
<path d="M223.182 425.727C223.791 424.032 224.765 422.491 226.033 421.213C227.302 419.935 228.835 418.951 230.525 418.33C232.215 417.71 234.02 417.467 235.814 417.62C237.607 417.774 239.345 418.319 240.906 419.217L273.949 390.508L276.938 413.069L245.102 436.873C243.42 439.396 240.873 441.215 237.941 441.984C235.01 442.753 231.898 442.419 229.196 441.045C226.494 439.672 224.39 437.354 223.281 434.53C222.173 431.707 222.137 428.575 223.182 425.727Z" fill="#FFB8B8"/>
<path d="M254.696 431.989C254.158 431.989 253.624 431.91 253.108 431.756C252.272 431.512 251.507 431.072 250.876 430.471C250.245 429.871 249.767 429.128 249.481 428.304L245.493 416.994C245.12 415.948 245.072 414.814 245.357 413.742C245.642 412.669 246.245 411.708 247.087 410.986L292.108 383.932L274.361 304.684L274.813 304.575C274.996 304.53 293.179 300.387 300.63 320.275C305.848 334.205 325.158 364.491 323.795 384.957C323.536 389.051 321.907 392.938 319.169 395.991C316.432 399.044 312.746 401.084 308.708 401.782L258.031 430.844C257.077 431.585 255.904 431.987 254.696 431.989Z" fill="#CCCCCC"/>
<path d="M259.745 423.039C259.136 421.344 258.162 419.803 256.894 418.525C255.625 417.247 254.092 416.263 252.402 415.642C250.712 415.021 248.907 414.779 247.113 414.932C245.32 415.085 243.582 415.63 242.021 416.528L208.978 387.82L205.989 410.381L237.825 434.184C239.507 436.708 242.054 438.527 244.986 439.296C247.917 440.065 251.029 439.731 253.731 438.357C256.433 436.983 258.537 434.665 259.646 431.842C260.754 429.019 260.79 425.887 259.745 423.039Z" fill="#FFB8B8"/>
<path d="M231.547 431.989C230.339 431.987 229.166 431.585 228.211 430.844L173.861 404.233C169.823 403.535 166.137 401.495 163.4 398.442C160.662 395.389 159.033 391.502 158.774 387.409C157.412 366.942 180.394 334.204 185.612 320.275C193.063 300.387 211.246 304.528 211.43 304.575L211.881 304.684L190.461 386.383L239.155 410.986C239.997 411.708 240.601 412.669 240.886 413.742C241.17 414.814 241.123 415.948 240.749 416.994L236.761 428.304C236.476 429.128 235.998 429.871 235.367 430.471C234.736 431.072 233.97 431.512 233.134 431.756C232.619 431.91 232.084 431.989 231.547 431.989Z" fill="#CCCCCC"/>
<path d="M296.384 444.275H187.41C185.137 444.272 182.959 443.368 181.352 441.759C179.745 440.151 178.841 437.97 178.839 435.696V375.642C178.841 373.368 179.745 371.187 181.352 369.579C182.959 367.97 185.137 367.066 187.41 367.063H296.384C298.656 367.066 300.835 367.97 302.442 369.579C304.048 371.187 304.952 373.368 304.955 375.642V435.696C304.952 437.97 304.048 440.151 302.441 441.759C300.835 443.368 298.656 444.272 296.384 444.275Z" fill="#8D99AE"/>
<path d="M241.897 413.023C245.954 413.023 249.243 409.73 249.243 405.669C249.243 401.608 245.954 398.316 241.897 398.316C237.839 398.316 234.55 401.608 234.55 405.669C234.55 409.73 237.839 413.023 241.897 413.023Z" fill="white"/>
<path d="M213.774 258.189C211.991 253.664 214.916 248.271 219.254 246.079C223.592 243.887 228.827 244.304 233.467 245.749C237.367 246.963 241.022 248.844 244.826 250.33C248.577 251.994 252.674 252.724 256.768 252.459C260.826 252 264.865 249.723 266.525 245.988C268.246 242.117 267.076 237.393 264.425 234.089C261.605 230.895 257.955 228.547 253.881 227.306C244.933 224.15 234.598 224.058 226.292 228.645C217.985 233.231 212.34 242.996 214.057 252.335" fill="#2B2D42"/>
<path d="M39.9928 431.184C41.5056 414.877 45.6836 398.929 52.3602 383.978C54.221 379.817 56.2691 375.748 58.5045 371.77C58.6167 371.562 58.6437 371.318 58.5799 371.091C58.5161 370.863 58.3665 370.669 58.1626 370.55C57.9587 370.431 57.7165 370.395 57.4871 370.452C57.2577 370.508 57.059 370.651 56.9329 370.851C48.8036 385.338 43.1085 401.065 40.0753 417.401C39.2315 421.963 38.5973 426.557 38.1728 431.184C38.0649 432.351 39.8856 432.343 39.9928 431.184Z" fill="#E6E6E6"/>
<path d="M62.9128 374.692C69.2791 374.692 74.4401 369.526 74.4401 363.154C74.4401 356.781 69.2791 351.615 62.9128 351.615C56.5465 351.615 51.3856 356.781 51.3856 363.154C51.3856 369.526 56.5465 374.692 62.9128 374.692Z" fill="#8D99AE"/>
<path d="M41.172 431.49C42.1533 420.911 44.8638 410.565 49.1952 400.866C50.4024 398.166 51.7311 395.526 53.1814 392.946C53.2541 392.811 53.2716 392.653 53.2302 392.505C53.1888 392.358 53.0917 392.232 52.9595 392.155C52.8272 392.077 52.6701 392.054 52.5213 392.091C52.3725 392.127 52.2436 392.22 52.1618 392.349C46.888 401.748 43.1932 411.951 41.2254 422.549C40.6781 425.508 40.2666 428.489 39.9912 431.49C39.9212 432.247 41.1025 432.243 41.172 431.49H41.172Z" fill="#E6E6E6"/>
<path d="M56.0412 394.841C60.1714 394.841 63.5195 391.49 63.5195 387.356C63.5195 383.222 60.1714 379.871 56.0412 379.871C51.9111 379.871 48.563 383.222 48.563 387.356C48.563 391.49 51.9111 394.841 56.0412 394.841Z" fill="#8D99AE"/>
<path d="M39.6817 430.784C33.9549 421.838 29.7346 412.012 27.1896 401.697C26.4827 398.826 25.9082 395.926 25.466 392.999C25.4405 392.847 25.3573 392.712 25.2339 392.621C25.1106 392.53 24.9567 392.491 24.8048 392.511C24.653 392.531 24.515 392.61 24.42 392.73C24.325 392.851 24.2803 393.003 24.2956 393.156C25.9126 403.814 29.2686 414.133 34.2294 423.701C35.6164 426.371 37.1235 428.975 38.7507 431.511C39.1607 432.151 40.0891 431.42 39.6817 430.784Z" fill="#E6E6E6"/>
<path d="M24.2862 394.316C28.4163 394.316 31.7644 390.965 31.7644 386.83C31.7644 382.696 28.4163 379.345 24.2862 379.345C20.156 379.345 16.8079 382.696 16.8079 386.83C16.8079 390.965 20.156 394.316 24.2862 394.316Z" fill="#8D99AE"/>
<path d="M16.7239 437.406V422.699C16.7256 421.237 17.3066 419.835 18.3396 418.801C19.3725 417.768 20.773 417.186 22.2339 417.184H56.5178C57.9786 417.186 59.3791 417.768 60.4121 418.801C61.445 419.835 62.0261 421.237 62.0277 422.699V437.406C62.0261 438.869 61.445 440.271 60.4121 441.304C59.3791 442.338 57.9786 442.92 56.5178 442.922H22.2339C20.773 442.92 19.3725 442.338 18.3396 441.304C17.3066 440.271 16.7256 438.869 16.7239 437.406Z" fill="#F2F2F2"/>
<path d="M384.971 454.571C384.971 462.631 378.442 466.295 370.389 466.295C362.336 466.295 355.808 462.631 355.808 454.571C355.808 446.51 359.048 437.105 370.389 440.348C381.731 435.483 384.971 446.51 384.971 454.571Z" fill="#EF233C"/>
<path d="M369.679 444.124C369.112 444.125 368.564 443.919 368.138 443.545C367.712 443.171 367.436 442.654 367.363 442.091C366.881 438.069 364.22 430.193 363.098 426.993L363.098 426.992C362.984 426.674 362.949 426.333 362.996 425.999C363.043 425.665 363.171 425.347 363.367 425.073C363.555 424.827 363.793 424.625 364.065 424.478C364.337 424.331 364.637 424.244 364.945 424.222C365.253 424.2 365.562 424.243 365.853 424.349C366.143 424.455 366.407 424.621 366.628 424.837C366.826 425.044 366.979 425.29 367.078 425.559C367.176 425.828 367.219 426.115 367.202 426.401C366.982 430.507 369.973 437.143 371.775 440.733C371.945 441.072 372.031 441.447 372.024 441.826C372.017 442.204 371.919 442.576 371.737 442.908C371.555 443.241 371.295 443.524 370.98 443.733C370.664 443.943 370.303 444.072 369.926 444.111C369.844 444.12 369.762 444.125 369.679 444.124Z" fill="#3F3D56"/>
<path d="M380.469 435.065C385.53 430.919 381.559 422.432 375.224 424.062C374.372 424.265 373.586 424.685 372.942 425.28C369.056 428.954 368.454 438.356 368.454 438.356C368.454 438.356 375.316 439.287 380.469 435.065Z" fill="#3F3D56"/>
<g clip-path="url(#clip1_8:202)">
<g clip-path="url(#clip2_8:202)">
<circle cx="3.35648" cy="4.28571" r="1.5" fill="#F2F2F2"/>
<circle cx="12.3565" cy="4.28571" r="1.5" fill="#F2F2F2"/>
<circle cx="21.3565" cy="4.28571" r="1.5" fill="#F2F2F2"/>
<circle cx="30.3565" cy="4.28571" r="1.5" fill="#F2F2F2"/>
<circle cx="39.3565" cy="4.28571" r="1.5" fill="#F2F2F2"/>
<circle cx="48.3565" cy="4.28571" r="1.5" fill="#F2F2F2"/>
<circle cx="57.3565" cy="4.28571" r="1.5" fill="#F2F2F2"/>
<circle cx="66.3565" cy="4.28571" r="1.5" fill="#F2F2F2"/>
<circle cx="75.3565" cy="4.28571" r="1.5" fill="#F2F2F2"/>
<circle cx="84.3565" cy="4.28571" r="1.5" fill="#F2F2F2"/>
<circle cx="93.3565" cy="4.28571" r="1.5" fill="#F2F2F2"/>
</g>
<g clip-path="url(#clip3_8:202)">
<circle cx="3.35648" cy="13.2857" r="1.5" fill="#F2F2F2"/>
<circle cx="12.3565" cy="13.2857" r="1.5" fill="#F2F2F2"/>
<circle cx="21.3565" cy="13.2857" r="1.5" fill="#F2F2F2"/>
<circle cx="30.3565" cy="13.2857" r="1.5" fill="#F2F2F2"/>
<circle cx="39.3565" cy="13.2857" r="1.5" fill="#F2F2F2"/>
<circle cx="48.3565" cy="13.2857" r="1.5" fill="#F2F2F2"/>
<circle cx="57.3565" cy="13.2857" r="1.5" fill="#F2F2F2"/>
<circle cx="66.3565" cy="13.2857" r="1.5" fill="#F2F2F2"/>
<circle cx="75.3565" cy="13.2857" r="1.5" fill="#F2F2F2"/>
<circle cx="84.3565" cy="13.2857" r="1.5" fill="#F2F2F2"/>
<circle cx="93.3565" cy="13.2857" r="1.5" fill="#F2F2F2"/>
</g>
<g clip-path="url(#clip4_8:202)">
<circle cx="3.35648" cy="22.2857" r="1.5" fill="#F2F2F2"/>
<circle cx="12.3565" cy="22.2857" r="1.5" fill="#F2F2F2"/>
<circle cx="21.3565" cy="22.2857" r="1.5" fill="#F2F2F2"/>
<circle cx="30.3565" cy="22.2857" r="1.5" fill="#F2F2F2"/>
<circle cx="39.3565" cy="22.2857" r="1.5" fill="#F2F2F2"/>
<circle cx="48.3565" cy="22.2857" r="1.5" fill="#F2F2F2"/>
<circle cx="57.3565" cy="22.2857" r="1.5" fill="#F2F2F2"/>
<circle cx="66.3565" cy="22.2857" r="1.5" fill="#F2F2F2"/>
<circle cx="75.3565" cy="22.2857" r="1.5" fill="#F2F2F2"/>
<circle cx="84.3565" cy="22.2857" r="1.5" fill="#F2F2F2"/>
<circle cx="93.3565" cy="22.2857" r="1.5" fill="#F2F2F2"/>
</g>
<g clip-path="url(#clip5_8:202)">
<circle cx="3.35648" cy="31.2857" r="1.5" fill="#F2F2F2"/>
<circle cx="12.3565" cy="31.2857" r="1.5" fill="#F2F2F2"/>
<circle cx="21.3565" cy="31.2857" r="1.5" fill="#F2F2F2"/>
<circle cx="30.3565" cy="31.2857" r="1.5" fill="#F2F2F2"/>
<circle cx="39.3565" cy="31.2857" r="1.5" fill="#F2F2F2"/>
<circle cx="48.3565" cy="31.2857" r="1.5" fill="#F2F2F2"/>
<circle cx="57.3565" cy="31.2857" r="1.5" fill="#F2F2F2"/>
<circle cx="66.3565" cy="31.2857" r="1.5" fill="#F2F2F2"/>
<circle cx="75.3565" cy="31.2857" r="1.5" fill="#F2F2F2"/>
<circle cx="84.3565" cy="31.2857" r="1.5" fill="#F2F2F2"/>
<circle cx="93.3565" cy="31.2857" r="1.5" fill="#F2F2F2"/>
</g>
<g clip-path="url(#clip6_8:202)">
<circle cx="3.35648" cy="40.2857" r="1.5" fill="#F2F2F2"/>
<circle cx="12.3565" cy="40.2857" r="1.5" fill="#F2F2F2"/>
<circle cx="21.3565" cy="40.2857" r="1.5" fill="#F2F2F2"/>
<circle cx="30.3565" cy="40.2857" r="1.5" fill="#F2F2F2"/>
<circle cx="39.3565" cy="40.2857" r="1.5" fill="#F2F2F2"/>
<circle cx="48.3565" cy="40.2857" r="1.5" fill="#F2F2F2"/>
<circle cx="57.3565" cy="40.2857" r="1.5" fill="#F2F2F2"/>
<circle cx="66.3565" cy="40.2857" r="1.5" fill="#F2F2F2"/>
<circle cx="75.3565" cy="40.2857" r="1.5" fill="#F2F2F2"/>
<circle cx="84.3565" cy="40.2857" r="1.5" fill="#F2F2F2"/>
<circle cx="93.3565" cy="40.2857" r="1.5" fill="#F2F2F2"/>
</g>
<g clip-path="url(#clip7_8:202)">
<circle cx="3.35648" cy="49.2857" r="1.5" fill="#F2F2F2"/>
<circle cx="12.3565" cy="49.2857" r="1.5" fill="#F2F2F2"/>
<circle cx="21.3565" cy="49.2857" r="1.5" fill="#F2F2F2"/>
<circle cx="30.3565" cy="49.2857" r="1.5" fill="#F2F2F2"/>
<circle cx="39.3565" cy="49.2857" r="1.5" fill="#F2F2F2"/>
<circle cx="48.3565" cy="49.2857" r="1.5" fill="#F2F2F2"/>
<circle cx="57.3565" cy="49.2857" r="1.5" fill="#F2F2F2"/>
<circle cx="66.3565" cy="49.2857" r="1.5" fill="#F2F2F2"/>
<circle cx="75.3565" cy="49.2857" r="1.5" fill="#F2F2F2"/>
<circle cx="84.3565" cy="49.2857" r="1.5" fill="#F2F2F2"/>
<circle cx="93.3565" cy="49.2857" r="1.5" fill="#F2F2F2"/>
</g>
<g clip-path="url(#clip8_8:202)">
<circle cx="3.35648" cy="58.2857" r="1.5" fill="#F2F2F2"/>
<circle cx="12.3565" cy="58.2857" r="1.5" fill="#F2F2F2"/>
<circle cx="21.3565" cy="58.2857" r="1.5" fill="#F2F2F2"/>
<circle cx="30.3565" cy="58.2857" r="1.5" fill="#F2F2F2"/>
<circle cx="39.3565" cy="58.2857" r="1.5" fill="#F2F2F2"/>
<circle cx="48.3565" cy="58.2857" r="1.5" fill="#F2F2F2"/>
<circle cx="57.3565" cy="58.2857" r="1.5" fill="#F2F2F2"/>
<circle cx="66.3565" cy="58.2857" r="1.5" fill="#F2F2F2"/>
<circle cx="75.3565" cy="58.2857" r="1.5" fill="#F2F2F2"/>
<circle cx="84.3565" cy="58.2857" r="1.5" fill="#F2F2F2"/>
<circle cx="93.3565" cy="58.2857" r="1.5" fill="#F2F2F2"/>
</g>
<g clip-path="url(#clip9_8:202)">
<circle cx="3.35648" cy="67.2857" r="1.5" fill="#F2F2F2"/>
<circle cx="12.3565" cy="67.2857" r="1.5" fill="#F2F2F2"/>
<circle cx="21.3565" cy="67.2857" r="1.5" fill="#F2F2F2"/>
<circle cx="30.3565" cy="67.2857" r="1.5" fill="#F2F2F2"/>
<circle cx="39.3565" cy="67.2857" r="1.5" fill="#F2F2F2"/>
<circle cx="48.3565" cy="67.2857" r="1.5" fill="#F2F2F2"/>
<circle cx="57.3565" cy="67.2857" r="1.5" fill="#F2F2F2"/>
<circle cx="66.3565" cy="67.2857" r="1.5" fill="#F2F2F2"/>
<circle cx="75.3565" cy="67.2857" r="1.5" fill="#F2F2F2"/>
<circle cx="84.3565" cy="67.2857" r="1.5" fill="#F2F2F2"/>
<circle cx="93.3565" cy="67.2857" r="1.5" fill="#F2F2F2"/>
</g>
<g clip-path="url(#clip10_8:202)">
<circle cx="3.35648" cy="76.2857" r="1.5" fill="#F2F2F2"/>
<circle cx="12.3565" cy="76.2857" r="1.5" fill="#F2F2F2"/>
<circle cx="21.3565" cy="76.2857" r="1.5" fill="#F2F2F2"/>
<circle cx="30.3565" cy="76.2857" r="1.5" fill="#F2F2F2"/>
<circle cx="39.3565" cy="76.2857" r="1.5" fill="#F2F2F2"/>
<circle cx="48.3565" cy="76.2857" r="1.5" fill="#F2F2F2"/>
<circle cx="57.3565" cy="76.2857" r="1.5" fill="#F2F2F2"/>
<circle cx="66.3565" cy="76.2857" r="1.5" fill="#F2F2F2"/>
<circle cx="75.3565" cy="76.2857" r="1.5" fill="#F2F2F2"/>
<circle cx="84.3565" cy="76.2857" r="1.5" fill="#F2F2F2"/>
<circle cx="93.3565" cy="76.2857" r="1.5" fill="#F2F2F2"/>
</g>
<g clip-path="url(#clip11_8:202)">
<circle cx="3.35648" cy="85.2857" r="1.5" fill="#F2F2F2"/>
<circle cx="12.3565" cy="85.2857" r="1.5" fill="#F2F2F2"/>
<circle cx="21.3565" cy="85.2857" r="1.5" fill="#F2F2F2"/>
<circle cx="30.3565" cy="85.2857" r="1.5" fill="#F2F2F2"/>
<circle cx="39.3565" cy="85.2857" r="1.5" fill="#F2F2F2"/>
<circle cx="48.3565" cy="85.2857" r="1.5" fill="#F2F2F2"/>
<circle cx="57.3565" cy="85.2857" r="1.5" fill="#F2F2F2"/>
<circle cx="66.3565" cy="85.2857" r="1.5" fill="#F2F2F2"/>
<circle cx="75.3565" cy="85.2857" r="1.5" fill="#F2F2F2"/>
<circle cx="84.3565" cy="85.2857" r="1.5" fill="#F2F2F2"/>
<circle cx="93.3565" cy="85.2857" r="1.5" fill="#F2F2F2"/>
</g>
<g clip-path="url(#clip12_8:202)">
<circle cx="3.35648" cy="94.2857" r="1.5" fill="#F2F2F2"/>
<circle cx="12.3565" cy="94.2857" r="1.5" fill="#F2F2F2"/>
<circle cx="21.3565" cy="94.2857" r="1.5" fill="#F2F2F2"/>
<circle cx="30.3565" cy="94.2857" r="1.5" fill="#F2F2F2"/>
<circle cx="39.3565" cy="94.2857" r="1.5" fill="#F2F2F2"/>
<circle cx="48.3565" cy="94.2857" r="1.5" fill="#F2F2F2"/>
<circle cx="57.3565" cy="94.2857" r="1.5" fill="#F2F2F2"/>
<circle cx="66.3565" cy="94.2857" r="1.5" fill="#F2F2F2"/>
<circle cx="75.3565" cy="94.2857" r="1.5" fill="#F2F2F2"/>
<circle cx="84.3565" cy="94.2857" r="1.5" fill="#F2F2F2"/>
<circle cx="93.3565" cy="94.2857" r="1.5" fill="#F2F2F2"/>
</g>
</g>
<g clip-path="url(#clip13_8:202)">
<circle cx="66.5" cy="67.5" r="1.5" fill="#8D99AE"/>
<circle cx="75.5" cy="67.5" r="1.5" fill="#8D99AE"/>
<circle cx="84.5" cy="67.5" r="1.5" fill="#8D99AE"/>
<circle cx="93.5" cy="67.5" r="1.5" fill="#8D99AE"/>
<circle cx="102.5" cy="67.5" r="1.5" fill="#8D99AE"/>
<circle cx="111.5" cy="67.5" r="1.5" fill="#8D99AE"/>
<circle cx="66.5" cy="76.5" r="1.5" fill="#8D99AE"/>
<circle cx="75.5" cy="76.5" r="1.5" fill="#8D99AE"/>
<circle cx="84.5" cy="76.5" r="1.5" fill="#8D99AE"/>
<circle cx="93.5" cy="76.5" r="1.5" fill="#8D99AE"/>
<circle cx="102.5" cy="76.5" r="1.5" fill="#8D99AE"/>
<circle cx="111.5" cy="76.5" r="1.5" fill="#8D99AE"/>
<circle cx="66.5" cy="85.5" r="1.5" fill="#8D99AE"/>
<circle cx="75.5" cy="85.5" r="1.5" fill="#8D99AE"/>
<circle cx="84.5" cy="85.5" r="1.5" fill="#8D99AE"/>
<circle cx="93.5" cy="85.5" r="1.5" fill="#8D99AE"/>
<circle cx="102.5" cy="85.5" r="1.5" fill="#8D99AE"/>
<circle cx="111.5" cy="85.5" r="1.5" fill="#8D99AE"/>
<circle cx="66.5" cy="94.5" r="1.5" fill="#8D99AE"/>
<circle cx="75.5" cy="94.5" r="1.5" fill="#8D99AE"/>
<circle cx="84.5" cy="94.5" r="1.5" fill="#8D99AE"/>
<circle cx="93.5" cy="94.5" r="1.5" fill="#8D99AE"/>
<circle cx="102.5" cy="94.5" r="1.5" fill="#8D99AE"/>
<circle cx="111.5" cy="94.5" r="1.5" fill="#8D99AE"/>
<circle cx="66.5" cy="103.5" r="1.5" fill="#8D99AE"/>
<circle cx="75.5" cy="103.5" r="1.5" fill="#8D99AE"/>
<circle cx="84.5" cy="103.5" r="1.5" fill="#8D99AE"/>
<circle cx="93.5" cy="103.5" r="1.5" fill="#8D99AE"/>
<circle cx="102.5" cy="103.5" r="1.5" fill="#8D99AE"/>
<circle cx="111.5" cy="103.5" r="1.5" fill="#8D99AE"/>
<circle cx="66.5" cy="112.5" r="1.5" fill="#8D99AE"/>
<circle cx="75.5" cy="112.5" r="1.5" fill="#8D99AE"/>
<circle cx="84.5" cy="112.5" r="1.5" fill="#8D99AE"/>
<circle cx="93.5" cy="112.5" r="1.5" fill="#8D99AE"/>
<circle cx="102.5" cy="112.5" r="1.5" fill="#8D99AE"/>
<circle cx="111.5" cy="112.5" r="1.5" fill="#8D99AE"/>
</g>
<path d="M210 263C205.589 263 202 257.841 202 251.5C202 245.159 205.589 240 210 240C214.411 240 218 245.159 218 251.5C218 257.841 214.411 263 210 263Z" fill="#8D99AE"/>
<path d="M279 263C274.589 263 271 257.841 271 251.5C271 245.159 274.589 240 279 240C283.411 240 287 245.159 287 251.5C287 257.841 283.411 263 279 263Z" fill="#8D99AE"/>
<path d="M281.025 261C280.872 261 280.721 260.963 280.585 260.893C280.449 260.823 280.332 260.721 280.242 260.596C280.153 260.471 280.095 260.327 280.072 260.175C280.049 260.023 280.063 259.868 280.112 259.722C281.953 254.221 282.507 248.368 281.73 242.616C280.954 236.865 278.868 231.371 275.634 226.562C272.401 221.752 268.107 217.757 263.087 214.885C258.067 212.014 252.455 210.345 246.688 210.007C240.921 209.669 235.154 210.671 229.836 212.936C224.517 215.201 219.79 218.668 216.022 223.067C212.254 227.467 209.546 232.679 208.109 238.301C206.672 243.922 206.545 249.801 207.737 255.48C207.789 255.731 207.739 255.992 207.6 256.207C207.46 256.421 207.242 256.572 206.992 256.624C206.743 256.677 206.482 256.629 206.268 256.489C206.054 256.349 205.904 256.13 205.851 255.879C204.597 249.909 204.73 243.728 206.241 237.817C207.751 231.907 210.598 226.426 214.559 221.8C218.521 217.175 223.491 213.529 229.083 211.148C234.675 208.766 240.738 207.712 246.802 208.067C252.865 208.423 258.765 210.179 264.043 213.198C269.322 216.217 273.836 220.418 277.235 225.476C280.634 230.533 282.827 236.309 283.642 242.356C284.458 248.403 283.875 254.558 281.938 260.341C281.873 260.533 281.75 260.7 281.587 260.818C281.423 260.936 281.226 261 281.025 261Z" fill="#2B2D42"/>
</g>
<defs>
<clipPath id="clip0_8:202">
<rect width="802" height="507" fill="white"/>
</clipPath>
<clipPath id="clip1_8:202">
<rect width="92.8241" height="92.8571" fill="white" transform="translate(1.85648 2.78571)"/>
</clipPath>
<clipPath id="clip2_8:202">
<rect width="100" height="9" fill="white" transform="translate(1.85648 2.78571)"/>
</clipPath>
<clipPath id="clip3_8:202">
<rect width="100" height="9" fill="white" transform="translate(1.85648 11.7857)"/>
</clipPath>
<clipPath id="clip4_8:202">
<rect width="100" height="9" fill="white" transform="translate(1.85648 20.7857)"/>
</clipPath>
<clipPath id="clip5_8:202">
<rect width="100" height="9" fill="white" transform="translate(1.85648 29.7857)"/>
</clipPath>
<clipPath id="clip6_8:202">
<rect width="100" height="9" fill="white" transform="translate(1.85648 38.7857)"/>
</clipPath>
<clipPath id="clip7_8:202">
<rect width="100" height="9" fill="white" transform="translate(1.85648 47.7857)"/>
</clipPath>
<clipPath id="clip8_8:202">
<rect width="100" height="9" fill="white" transform="translate(1.85648 56.7857)"/>
</clipPath>
<clipPath id="clip9_8:202">
<rect width="100" height="9" fill="white" transform="translate(1.85648 65.7857)"/>
</clipPath>
<clipPath id="clip10_8:202">
<rect width="100" height="9" fill="white" transform="translate(1.85648 74.7857)"/>
</clipPath>
<clipPath id="clip11_8:202">
<rect width="100" height="9" fill="white" transform="translate(1.85648 83.7857)"/>
</clipPath>
<clipPath id="clip12_8:202">
<rect width="100" height="9" fill="white" transform="translate(1.85648 92.7857)"/>
</clipPath>
<clipPath id="clip13_8:202">
<rect width="50" height="50" fill="white" transform="translate(65 66)"/>
</clipPath>
</defs>
</svg>
