<svg width="140" height="172" viewBox="0 0 140 172" fill="none" xmlns="http://www.w3.org/2000/svg">
<path d="M50.926 169.816V108.187C50.926 107.003 49.9674 106.043 48.7814 106.043C47.597 106.043 46.6368 107.003 46.6368 108.187V169.816C46.6368 171.001 47.5955 171.961 48.7814 171.961C49.9659 171.961 50.926 171.001 50.926 169.816Z" fill="white"/>
<path d="M72.144 169.816V108.187C72.144 107.003 71.1854 106.043 69.9994 106.043C68.8149 106.043 67.8548 107.003 67.8548 108.187V169.816C67.8548 171.001 68.8134 171.961 69.9994 171.961C71.1839 171.961 72.144 171.001 72.144 169.816Z" fill="white"/>
<path d="M93.3657 169.816V108.187C93.3657 107.003 92.4071 106.043 91.2211 106.043C90.0367 106.043 89.0765 107.003 89.0765 108.187V169.816C89.0765 171.001 90.0352 171.961 91.2211 171.961C92.4056 171.961 93.3657 171.001 93.3657 169.816Z" fill="white"/>
<path d="M21.6336 47.8377C26.1935 55.0553 26.5825 69.4841 26.5599 74.8322H25.4906C19.459 74.8322 14.5523 79.7389 14.5523 85.7704C14.5523 91.802 19.4575 96.7087 25.4906 96.7087H29.4581V169.815C29.4581 171 30.4167 171.96 31.6027 171.96C32.7872 171.96 33.7473 171 33.7473 169.815L33.7458 96.7087H106.251V169.815C106.251 171 107.21 171.96 108.396 171.96C109.58 171.96 110.541 171 110.541 169.815L110.539 96.7087H114.507C120.538 96.7087 125.445 91.802 125.445 85.7704C125.445 79.7389 120.54 74.8322 114.507 74.8322H113.437C113.413 69.4856 113.798 55.0626 118.363 47.8377C130.229 46.5127 139.49 36.4313 139.49 24.2158C139.49 11.1045 128.822 0.438477 115.711 0.438477H24.2844C11.1731 0.438477 0.505524 11.1045 0.505524 24.2174C0.505524 36.4313 9.76607 46.5127 21.6316 47.8377H21.6336ZM121.157 85.7704C121.157 89.4375 118.174 92.4195 114.508 92.4195L25.4902 92.421C21.8246 92.421 18.8411 89.4389 18.8411 85.7719C18.8411 82.105 21.8247 79.1229 25.4902 79.1229H114.508C118.175 79.1214 121.159 82.1035 121.159 85.7704L121.157 85.7704ZM38.6248 74.8337C38.894 63.6754 41.2211 52.1031 44.4753 52.1031C47.7251 52.1031 50.0505 63.6769 50.3227 74.8337H38.6248ZM64.1492 74.8337C64.4184 63.6754 66.7454 52.1031 69.9996 52.1031C73.2494 52.1031 75.5763 63.6769 75.8485 74.8337H64.1492ZM89.6765 74.8337C89.9457 63.6754 92.2713 52.1031 95.5239 52.1031C98.7737 52.1031 101.101 63.6769 101.373 74.8337H89.6765ZM109.147 74.8337H105.671C105.269 49.8133 97.8451 47.8155 95.5254 47.8155C86.9245 47.8155 85.5593 66.378 85.3858 74.8337H80.1468C79.743 49.8133 72.3193 47.8155 69.9996 47.8155C67.6798 47.8155 60.2562 49.8136 59.8539 74.8337H54.6179C54.2156 49.8133 46.7946 47.8155 44.4737 47.8155C42.1541 47.8155 34.7304 49.8136 34.328 74.8337H30.8524C30.8853 69.6097 30.5294 56.4731 26.5288 47.9082C37.3234 47.0811 44.6728 40.2644 45.5847 30.2309H94.4143C95.3266 40.2644 102.676 47.0827 113.47 47.9082C109.468 56.4715 109.114 69.61 109.147 74.8337H109.147ZM24.2865 4.72495H115.713C126.46 4.72495 135.204 13.4679 135.204 24.2162C135.204 34.963 126.461 43.7075 115.713 43.7075C105.319 43.7075 98.6052 37.5741 98.6052 28.085C98.6052 25.5456 99.2228 17.2589 107.158 17.2589C113.634 17.2589 115.941 22.8506 115.941 28.085C115.941 29.2695 116.9 30.2296 118.086 30.2296C119.27 30.2296 120.231 29.2695 120.231 28.085C120.231 19.0446 114.977 12.9709 107.159 12.9709C99.9854 12.9709 95.1591 17.9959 94.4263 25.9402H45.5738C44.838 17.9944 39.994 12.9709 32.7959 12.9709C24.9772 12.9709 19.7248 19.0442 19.7248 28.085C19.7248 29.2695 20.6834 30.2296 21.8694 30.2296C23.0539 30.2296 24.014 29.2695 24.014 28.085C24.014 22.8521 26.3216 17.2589 32.7971 17.2589C39.1369 17.2589 41.3965 22.8506 41.3965 28.085C41.3965 37.5741 34.6816 43.7075 24.2889 43.7075C13.5421 43.7075 4.79766 34.9645 4.79766 24.2162C4.79467 13.4694 13.5391 4.72495 24.2859 4.72495H24.2865Z" fill="white"/>
</svg>
