<svg width="96" height="84" viewBox="0 0 96 84" fill="none" xmlns="http://www.w3.org/2000/svg">
<path d="M48 21C45.9233 21 43.8932 20.3842 42.1665 19.2304C40.4398 18.0767 39.094 16.4368 38.2993 14.5182C37.5045 12.5996 37.2966 10.4884 37.7018 8.45156C38.1069 6.41476 39.1069 4.54383 40.5754 3.07538C42.0438 1.60693 43.9148 0.606904 45.9516 0.201759C47.9884 -0.203386 50.0996 0.0045495 52.0182 0.79927C53.9368 1.59399 55.5767 2.9398 56.7304 4.66652C57.8842 6.39323 58.5 8.4233 58.5 10.5C58.5 13.2848 57.3938 15.9555 55.4246 17.9246C53.4555 19.8938 50.7848 21 48 21V21ZM48 3.5C46.6155 3.5 45.2622 3.91055 44.111 4.67972C42.9599 5.44889 42.0627 6.54214 41.5328 7.82122C41.003 9.1003 40.8644 10.5078 41.1345 11.8656C41.4046 13.2235 42.0713 14.4708 43.0503 15.4497C44.0292 16.4287 45.2765 17.0954 46.6344 17.3655C47.9922 17.6356 49.3997 17.497 50.6788 16.9672C51.9579 16.4373 53.0511 15.5401 53.8203 14.389C54.5895 13.2378 55 11.8845 55 10.5C55 8.64349 54.2625 6.86301 52.9498 5.55026C51.637 4.2375 49.8565 3.5 48 3.5V3.5Z" fill="white"/>
<path d="M23.5 47.25C21.4233 47.25 19.3932 46.6342 17.6665 45.4804C15.9398 44.3267 14.594 42.6868 13.7993 40.7682C13.0045 38.8496 12.7966 36.7384 13.2018 34.7016C13.6069 32.6648 14.6069 30.7938 16.0754 29.3254C17.5438 27.8569 19.4148 26.8569 21.4516 26.4518C23.4884 26.0466 25.5996 26.2545 27.5182 27.0493C29.4368 27.844 31.0767 29.1898 32.2304 30.9165C33.3842 32.6432 34 34.6733 34 36.75C34 39.5348 32.8938 42.2055 30.9246 44.1746C28.9555 46.1438 26.2848 47.25 23.5 47.25ZM23.5 29.75C22.1155 29.75 20.7622 30.1605 19.611 30.9297C18.4599 31.6989 17.5627 32.7921 17.0328 34.0712C16.503 35.3503 16.3644 36.7578 16.6345 38.1156C16.9046 39.4735 17.5713 40.7208 18.5503 41.6998C19.5292 42.6787 20.7765 43.3454 22.1344 43.6155C23.4922 43.8856 24.8997 43.747 26.1788 43.2172C27.4579 42.6873 28.5511 41.7901 29.3203 40.639C30.0895 39.4879 30.5 38.1345 30.5 36.75C30.5 34.8935 29.7625 33.113 28.4497 31.8003C27.137 30.4875 25.3565 29.75 23.5 29.75Z" fill="white"/>
<path d="M35.75 84C33.6733 84 31.6432 83.3842 29.9165 82.2304C28.1898 81.0767 26.844 79.4368 26.0493 77.5182C25.2545 75.5996 25.0466 73.4884 25.4518 71.4516C25.8569 69.4148 26.8569 67.5438 28.3254 66.0754C29.7938 64.6069 31.6648 63.6069 33.7016 63.2018C35.7384 62.7966 37.8496 63.0045 39.7682 63.7993C41.6868 64.594 43.3267 65.9398 44.4804 67.6665C45.6342 69.3932 46.25 71.4233 46.25 73.5C46.25 76.2848 45.1438 78.9555 43.1746 80.9246C41.2055 82.8938 38.5348 84 35.75 84V84ZM35.75 66.5C34.3655 66.5 33.0122 66.9105 31.861 67.6797C30.7099 68.4489 29.8127 69.5421 29.2828 70.8212C28.753 72.1003 28.6144 73.5078 28.8845 74.8656C29.1546 76.2235 29.8213 77.4708 30.8003 78.4498C31.7792 79.4287 33.0265 80.0954 34.3844 80.3655C35.7422 80.6356 37.1497 80.497 38.4288 79.9672C39.7079 79.4374 40.8011 78.5401 41.5703 77.389C42.3395 76.2379 42.75 74.8845 42.75 73.5C42.75 71.6435 42.0125 69.863 40.6998 68.5503C39.387 67.2375 37.6065 66.5 35.75 66.5Z" fill="white"/>
<path d="M11.25 84C9.1733 84 7.14323 83.3842 5.41652 82.2304C3.6898 81.0767 2.34399 79.4368 1.54927 77.5182C0.75455 75.5996 0.546614 73.4884 0.951759 71.4516C1.3569 69.4148 2.35693 67.5438 3.82538 66.0754C5.29384 64.6069 7.16476 63.6069 9.20156 63.2018C11.2384 62.7966 13.3496 63.0045 15.2682 63.7993C17.1868 64.594 18.8267 65.9398 19.9804 67.6665C21.1342 69.3932 21.75 71.4233 21.75 73.5C21.75 76.2848 20.6438 78.9555 18.6746 80.9246C16.7055 82.8938 14.0348 84 11.25 84V84ZM11.25 66.5C9.86554 66.5 8.51216 66.9105 7.36102 67.6797C6.20987 68.4489 5.31266 69.5421 4.78285 70.8212C4.25304 72.1003 4.11441 73.5078 4.38451 74.8656C4.65461 76.2235 5.32129 77.4708 6.30026 78.4498C7.27923 79.4287 8.52651 80.0954 9.88437 80.3655C11.2422 80.6356 12.6497 80.497 13.9288 79.9672C15.2079 79.4374 16.3011 78.5401 17.0703 77.389C17.8395 76.2379 18.25 74.8845 18.25 73.5C18.25 71.6435 17.5125 69.863 16.1998 68.5503C14.887 67.2375 13.1065 66.5 11.25 66.5Z" fill="white"/>
<path d="M14.015 66.9375C13.8291 66.9615 13.6409 66.9615 13.455 66.9375C13.2364 66.8644 13.0343 66.7489 12.8604 66.5975C12.6866 66.4461 12.5443 66.2619 12.4419 66.0553C12.3394 65.8488 12.2788 65.6241 12.2635 65.3941C12.2481 65.1641 12.2784 64.9333 12.3525 64.715L19.0725 44.59C19.1461 44.3717 19.2619 44.17 19.4134 43.9964C19.5649 43.8228 19.749 43.6808 19.9554 43.5784C20.1618 43.4761 20.3863 43.4153 20.6162 43.3997C20.846 43.3841 21.0767 43.4139 21.295 43.4875C21.5133 43.561 21.715 43.6768 21.8886 43.8283C22.0622 43.9798 22.2042 44.164 22.3066 44.3704C22.4089 44.5768 22.4697 44.8013 22.4853 45.0311C22.5009 45.261 22.4711 45.4917 22.3975 45.71L15.6775 65.835C15.5457 66.1662 15.3158 66.4493 15.0187 66.6463C14.7216 66.8433 14.3714 66.9449 14.015 66.9375Z" fill="white"/>
<path d="M28.9775 31.675C28.6463 31.6761 28.3217 31.5832 28.0412 31.4072C27.7607 31.2311 27.5359 30.9791 27.393 30.6804C27.25 30.3816 27.1948 30.0485 27.2336 29.7196C27.2725 29.3907 27.4039 29.0796 27.6125 28.8225L39.3375 14.2275C39.6299 13.8654 40.0541 13.6344 40.5169 13.5852C40.9796 13.5359 41.443 13.6726 41.805 13.965C42.167 14.2574 42.3981 14.6816 42.4473 15.1443C42.4965 15.6071 42.3599 16.0704 42.0675 16.4325L30.3425 31.0275C30.1778 31.2305 29.9697 31.394 29.7335 31.5061C29.4973 31.6181 29.2389 31.6758 28.9775 31.675V31.675Z" fill="white"/>
<path d="M32.985 66.9375C32.6034 66.9574 32.2257 66.8519 31.9097 66.637C31.5937 66.4221 31.3568 66.1097 31.235 65.7475L24.515 45.6225C24.4415 45.4042 24.4116 45.1735 24.4272 44.9437C24.4429 44.7138 24.5036 44.4893 24.606 44.2829C24.7083 44.0765 24.8504 43.8924 25.0239 43.7409C25.1975 43.5894 25.3992 43.4736 25.6175 43.4C25.8358 43.3265 26.0665 43.2967 26.2963 43.3123C26.5262 43.3279 26.7507 43.3886 26.9571 43.491C27.1635 43.5933 27.3477 43.7354 27.4991 43.9089C27.6506 44.0825 27.7665 44.2842 27.84 44.5025L34.56 64.6275C34.6341 64.8458 34.6644 65.0766 34.6491 65.3066C34.6337 65.5366 34.5731 65.7614 34.4706 65.9679C34.3682 66.1744 34.2259 66.3587 34.0521 66.51C33.8782 66.6614 33.6762 66.777 33.4575 66.85C33.3037 66.8964 33.1452 66.9258 32.985 66.9375V66.9375Z" fill="white"/>
<path d="M72.5 47.25C70.4233 47.25 68.3932 46.6342 66.6665 45.4804C64.9398 44.3267 63.594 42.6868 62.7993 40.7682C62.0045 38.8496 61.7966 36.7384 62.2018 34.7016C62.6069 32.6648 63.6069 30.7938 65.0754 29.3254C66.5438 27.8569 68.4148 26.8569 70.4516 26.4518C72.4884 26.0466 74.5996 26.2545 76.5182 27.0493C78.4368 27.844 80.0767 29.1898 81.2304 30.9165C82.3842 32.6432 83 34.6733 83 36.75C83 39.5348 81.8938 42.2055 79.9246 44.1746C77.9555 46.1438 75.2848 47.25 72.5 47.25ZM72.5 29.75C71.1155 29.75 69.7622 30.1605 68.611 30.9297C67.4599 31.6989 66.5627 32.7921 66.0328 34.0712C65.503 35.3503 65.3644 36.7578 65.6345 38.1156C65.9046 39.4735 66.5713 40.7208 67.5503 41.6998C68.5292 42.6787 69.7765 43.3454 71.1344 43.6155C72.4922 43.8856 73.8997 43.747 75.1788 43.2172C76.4579 42.6873 77.5511 41.7901 78.3203 40.639C79.0895 39.4879 79.5 38.1345 79.5 36.75C79.5 34.8935 78.7625 33.113 77.4497 31.8003C76.137 30.4875 74.3565 29.75 72.5 29.75Z" fill="white"/>
<path d="M60.25 84C58.1733 84 56.1432 83.3842 54.4165 82.2304C52.6898 81.0767 51.344 79.4368 50.5493 77.5182C49.7545 75.5996 49.5466 73.4884 49.9518 71.4516C50.3569 69.4148 51.3569 67.5438 52.8254 66.0754C54.2938 64.6069 56.1648 63.6069 58.2016 63.2018C60.2384 62.7966 62.3496 63.0045 64.2682 63.7993C66.1868 64.594 67.8267 65.9398 68.9804 67.6665C70.1342 69.3932 70.75 71.4233 70.75 73.5C70.75 76.2848 69.6438 78.9555 67.6746 80.9246C65.7055 82.8938 63.0348 84 60.25 84V84ZM60.25 66.5C58.8655 66.5 57.5122 66.9105 56.361 67.6797C55.2099 68.4489 54.3127 69.5421 53.7828 70.8212C53.253 72.1003 53.1144 73.5078 53.3845 74.8656C53.6546 76.2235 54.3213 77.4708 55.3003 78.4498C56.2792 79.4287 57.5265 80.0954 58.8844 80.3655C60.2422 80.6356 61.6497 80.497 62.9288 79.9672C64.2079 79.4374 65.3011 78.5401 66.0703 77.389C66.8395 76.2379 67.25 74.8845 67.25 73.5C67.25 71.6435 66.5125 69.863 65.1998 68.5503C63.887 67.2375 62.1065 66.5 60.25 66.5Z" fill="white"/>
<path d="M84.75 84C82.6733 84 80.6432 83.3842 78.9165 82.2304C77.1898 81.0767 75.844 79.4368 75.0493 77.5182C74.2545 75.5996 74.0466 73.4884 74.4518 71.4516C74.8569 69.4148 75.8569 67.5438 77.3254 66.0754C78.7938 64.6069 80.6648 63.6069 82.7016 63.2018C84.7384 62.7966 86.8496 63.0045 88.7682 63.7993C90.6868 64.594 92.3267 65.9398 93.4804 67.6665C94.6342 69.3932 95.25 71.4233 95.25 73.5C95.25 76.2848 94.1438 78.9555 92.1746 80.9246C90.2055 82.8938 87.5348 84 84.75 84V84ZM84.75 66.5C83.3655 66.5 82.0122 66.9105 80.861 67.6797C79.7099 68.4489 78.8127 69.5421 78.2828 70.8212C77.753 72.1003 77.6144 73.5078 77.8845 74.8656C78.1546 76.2235 78.8213 77.4708 79.8003 78.4498C80.7792 79.4287 82.0265 80.0954 83.3844 80.3655C84.7422 80.6356 86.1497 80.497 87.4288 79.9672C88.7079 79.4374 89.8011 78.5401 90.5703 77.389C91.3395 76.2379 91.75 74.8845 91.75 73.5C91.75 71.6435 91.0125 69.863 89.6997 68.5503C88.387 67.2375 86.6065 66.5 84.75 66.5Z" fill="white"/>
<path d="M81.985 66.9375C81.6034 66.9574 81.2257 66.8519 80.9097 66.637C80.5937 66.4221 80.3568 66.1097 80.235 65.7475L73.515 45.6225C73.3665 45.1816 73.3992 44.6997 73.606 44.2829C73.8127 43.8661 74.1766 43.5485 74.6175 43.4C75.0584 43.2515 75.5403 43.2842 75.9571 43.491C76.3739 43.6977 76.6915 44.0616 76.84 44.5025L83.56 64.6275C83.6341 64.8458 83.6644 65.0766 83.6491 65.3066C83.6337 65.5366 83.5731 65.7614 83.4706 65.9679C83.3682 66.1744 83.226 66.3587 83.0521 66.51C82.8782 66.6614 82.6762 66.777 82.4575 66.85C82.3037 66.8964 82.1452 66.9258 81.985 66.9375Z" fill="white"/>
<path d="M67.0225 31.675C66.7611 31.6759 66.5027 31.6182 66.2665 31.5062C66.0303 31.3941 65.8222 31.2306 65.6575 31.0275L53.9325 16.4325C53.7877 16.2475 53.6808 16.0358 53.6178 15.8095C53.5549 15.5832 53.5371 15.3467 53.5655 15.1135C53.594 14.8803 53.6681 14.655 53.7836 14.4504C53.8991 14.2459 54.0537 14.066 54.2387 13.9213C54.4237 13.7765 54.6355 13.6696 54.8618 13.6066C55.0881 13.5436 55.3246 13.5259 55.5578 13.5543C56.0288 13.6117 56.4576 13.8539 56.75 14.2275L68.475 28.8225C68.6836 29.0797 68.815 29.3908 68.8539 29.7197C68.8927 30.0485 68.8375 30.3817 68.6945 30.6804C68.5516 30.9791 68.3268 31.2312 68.0463 31.4072C67.7658 31.5833 67.4412 31.6761 67.11 31.675H67.0225Z" fill="white"/>
<path d="M63.015 66.9375C62.8291 66.9615 62.6409 66.9615 62.455 66.9375C62.2364 66.8644 62.0343 66.7489 61.8604 66.5975C61.6866 66.4461 61.5443 66.2619 61.4419 66.0554C61.3394 65.8488 61.2788 65.6241 61.2635 65.3941C61.2481 65.1641 61.2784 64.9333 61.3525 64.715L68.0725 44.59C68.221 44.1491 68.5386 43.7852 68.9554 43.5784C69.3722 43.3717 69.8541 43.339 70.295 43.4875C70.7359 43.636 71.0998 43.9536 71.3066 44.3704C71.5133 44.7872 71.546 45.2691 71.3975 45.71L64.6775 65.835C64.5457 66.1662 64.3158 66.4493 64.0187 66.6463C63.7216 66.8433 63.3714 66.9449 63.015 66.9375V66.9375Z" fill="white"/>
</svg>
