<svg width="116" height="118" viewBox="0 0 116 118" fill="none" xmlns="http://www.w3.org/2000/svg">
<path d="M36.548 98.06C38.532 98.06 40.144 96.448 40.144 94.464V40.4C40.144 38.416 38.532 36.804 36.548 36.804C34.564 36.804 32.952 38.416 32.952 40.4V94.464C32.952 96.448 34.564 98.06 36.548 98.06Z" fill="white"/>
<path d="M58 98.06C59.984 98.06 61.596 96.448 61.596 94.464V40.4C61.596 38.416 59.984 36.804 58 36.804C56.016 36.804 54.404 38.416 54.404 40.4V94.464C54.404 96.448 56.016 98.06 58 98.06Z" fill="white"/>
<path d="M79.452 98.06C81.436 98.06 83.048 96.448 83.048 94.464V40.4C83.048 38.416 81.436 36.804 79.452 36.804C77.468 36.804 75.856 38.416 75.856 40.4V94.464C75.732 96.448 77.344 98.06 79.452 98.06Z" fill="white"/>
<path d="M111.692 16.096H84.412L77.096 4.43998C75.36 1.71198 72.508 0.0999756 69.284 0.0999756H46.716C43.492 0.0999756 40.64 1.71198 38.904 4.43998L31.712 16.096H4.432C2.448 16.096 0.835999 17.708 0.835999 19.692C0.835999 21.676 2.448 23.288 4.432 23.288H10.632V106.244C10.632 112.568 15.716 117.652 22.04 117.652H94.208C100.532 117.652 105.616 112.568 105.616 106.244V23.412H111.692C113.676 23.412 115.288 21.8 115.288 19.816C115.288 17.832 113.676 16.096 111.692 16.096ZM45.104 8.28398C45.476 7.78798 45.972 7.41598 46.716 7.41598H69.408C70.028 7.41598 70.648 7.78798 71.02 8.28398L75.856 16.096H40.268L45.104 8.28398ZM98.176 106.492C98.176 108.724 96.316 110.584 94.084 110.584H21.916C19.684 110.584 17.824 108.724 17.824 106.492V23.412H98.3V106.492H98.176Z" fill="white"/>
</svg>
