<svg width="104" height="59" viewBox="0 0 104 59" fill="none" xmlns="http://www.w3.org/2000/svg">
<path d="M94.6174 0.726601H59.2429V0H43.2028V0.726601H7.68243C7.3682 0.726601 7.05705 0.788282 6.76674 0.908121C6.47643 1.02796 6.21265 1.20361 5.99045 1.42504C5.76826 1.64647 5.59201 1.90935 5.47176 2.19867C5.35151 2.48798 5.28961 2.79807 5.28961 3.11122V51.3838C5.28961 52.0163 5.54171 52.6228 5.99045 53.07C6.43919 53.5172 7.04781 53.7685 7.68243 53.7685H94.6174C94.9317 53.7685 95.2428 53.7068 95.5331 53.587C95.8235 53.4671 96.0872 53.2915 96.3094 53.07C96.5316 52.8486 96.7079 52.5857 96.8281 52.2964C96.9484 52.0071 97.0103 51.697 97.0103 51.3838V3.11122C97.0103 2.79807 96.9484 2.48798 96.8281 2.19867C96.7079 1.90935 96.5316 1.64647 96.3094 1.42504C96.0872 1.20361 95.8235 1.02796 95.5331 0.908119C95.2428 0.78828 94.9317 0.7266 94.6174 0.726601Z" fill="#3F3D56"/>
<path d="M93.8022 4.94089H8.49762V52.8966H93.8022V4.94089Z" fill="#FFC176"/>
<path d="M88.905 11.0443H84.8614V7.01447H88.905V11.0443ZM85.0372 10.8691H88.7292V7.18967H85.0372V10.8691Z" fill="#3F3D56"/>
<path d="M99.4054 52.0246H91.0802V51.4269C91.0802 51.4113 91.0771 51.3959 91.0711 51.3815C91.0652 51.3671 91.0564 51.3541 91.0454 51.3431C91.0343 51.3321 91.0212 51.3233 91.0068 51.3174C90.9923 51.3114 90.9769 51.3083 90.9613 51.3083H88.1069C88.0913 51.3083 88.0758 51.3114 88.0614 51.3174C88.047 51.3233 88.0339 51.3321 88.0228 51.3431C88.0118 51.3541 88.003 51.3671 87.997 51.3815C87.9911 51.3959 87.988 51.4113 87.988 51.4269V52.0246H86.204V51.4269C86.204 51.4113 86.2009 51.3959 86.195 51.3815C86.189 51.3671 86.1802 51.3541 86.1692 51.3431C86.1581 51.3321 86.145 51.3233 86.1306 51.3174C86.1162 51.3114 86.1007 51.3083 86.0851 51.3083H83.2307C83.2151 51.3083 83.1997 51.3114 83.1852 51.3174C83.1708 51.3233 83.1577 51.3321 83.1466 51.3431C83.1356 51.3541 83.1268 51.3671 83.1209 51.3815C83.1149 51.3959 83.1118 51.4113 83.1118 51.4269V52.0246H81.3278V51.4269C81.3278 51.4113 81.3248 51.3959 81.3188 51.3815C81.3128 51.3671 81.3041 51.3541 81.293 51.3431C81.282 51.3321 81.2689 51.3233 81.2544 51.3174C81.24 51.3114 81.2245 51.3083 81.2089 51.3083H78.3546C78.3389 51.3083 78.3235 51.3114 78.3091 51.3174C78.2946 51.3233 78.2815 51.3321 78.2705 51.3431C78.2594 51.3541 78.2507 51.3671 78.2447 51.3815C78.2387 51.3959 78.2356 51.4113 78.2356 51.4269V52.0246H76.4517V51.4269C76.4517 51.4113 76.4486 51.3959 76.4426 51.3815C76.4366 51.3671 76.4279 51.3541 76.4168 51.3431C76.4058 51.3321 76.3927 51.3233 76.3783 51.3174C76.3638 51.3114 76.3484 51.3083 76.3327 51.3083H73.4784C73.4628 51.3083 73.4473 51.3114 73.4329 51.3174C73.4184 51.3233 73.4053 51.3321 73.3943 51.3431C73.3833 51.3541 73.3745 51.3671 73.3685 51.3815C73.3625 51.3959 73.3595 51.4113 73.3595 51.4269V52.0246H71.5755V51.4269C71.5755 51.4113 71.5724 51.3959 71.5664 51.3815C71.5605 51.3671 71.5517 51.3541 71.5407 51.3431C71.5296 51.3321 71.5165 51.3233 71.5021 51.3174C71.4876 51.3114 71.4722 51.3083 71.4566 51.3083H68.6022C68.5866 51.3083 68.5711 51.3114 68.5567 51.3174C68.5423 51.3233 68.5292 51.3321 68.5181 51.3431C68.5071 51.3541 68.4983 51.3671 68.4923 51.3815C68.4864 51.3959 68.4833 51.4113 68.4833 51.4269V52.0246H66.6993V51.4269C66.6993 51.4113 66.6963 51.3959 66.6903 51.3815C66.6843 51.3671 66.6755 51.3541 66.6645 51.3431C66.6535 51.3321 66.6403 51.3233 66.6259 51.3174C66.6115 51.3114 66.596 51.3083 66.5804 51.3083H63.7261C63.7104 51.3083 63.695 51.3114 63.6805 51.3174C63.6661 51.3233 63.653 51.3321 63.642 51.3431C63.6309 51.3541 63.6221 51.3671 63.6162 51.3815C63.6102 51.3959 63.6071 51.4113 63.6071 51.4269V52.0246H61.8232V51.4269C61.8232 51.4113 61.8201 51.3959 61.8141 51.3815C61.8081 51.3671 61.7994 51.3541 61.7883 51.3431C61.7773 51.3321 61.7642 51.3233 61.7497 51.3174C61.7353 51.3114 61.7198 51.3083 61.7042 51.3083H39.3452C39.3296 51.3083 39.3141 51.3114 39.2997 51.3174C39.2852 51.3233 39.2721 51.3321 39.2611 51.3431C39.25 51.3541 39.2413 51.3671 39.2353 51.3815C39.2293 51.3959 39.2263 51.4113 39.2263 51.4269V52.0246H37.4423V51.4269C37.4423 51.4113 37.4392 51.3959 37.4332 51.3815C37.4273 51.3671 37.4185 51.3541 37.4075 51.3431C37.3964 51.3321 37.3833 51.3233 37.3689 51.3174C37.3544 51.3114 37.339 51.3083 37.3234 51.3083H34.469C34.4534 51.3083 34.4379 51.3114 34.4235 51.3174C34.4091 51.3233 34.396 51.3321 34.3849 51.3431C34.3739 51.3541 34.3651 51.3671 34.3591 51.3815C34.3532 51.3959 34.3501 51.4113 34.3501 51.4269V52.0246H32.5661V51.4269C32.5661 51.4113 32.563 51.3959 32.5571 51.3815C32.5511 51.3671 32.5423 51.3541 32.5313 51.3431C32.5202 51.3321 32.5071 51.3233 32.4927 51.3174C32.4783 51.3114 32.4628 51.3083 32.4472 51.3083H29.5928C29.5772 51.3083 29.5618 51.3114 29.5473 51.3174C29.5329 51.3233 29.5198 51.3321 29.5087 51.3431C29.4977 51.3541 29.4889 51.3671 29.483 51.3815C29.477 51.3959 29.4739 51.4113 29.4739 51.4269V52.0246H27.6899V51.4269C27.6899 51.4113 27.6869 51.3959 27.6809 51.3815C27.6749 51.3671 27.6662 51.3541 27.6551 51.3431C27.6441 51.3321 27.631 51.3233 27.6165 51.3174C27.6021 51.3114 27.5866 51.3083 27.571 51.3083H24.7167C24.701 51.3083 24.6856 51.3114 24.6712 51.3174C24.6567 51.3233 24.6436 51.3321 24.6326 51.3431C24.6215 51.3541 24.6128 51.3671 24.6068 51.3815C24.6008 51.3959 24.5977 51.4113 24.5977 51.4269V52.0246H22.8138V51.4269C22.8138 51.4113 22.8107 51.3959 22.8047 51.3815C22.7987 51.3671 22.79 51.3541 22.7789 51.3431C22.7679 51.3321 22.7548 51.3233 22.7404 51.3174C22.7259 51.3114 22.7105 51.3083 22.6948 51.3083H19.8405C19.8249 51.3083 19.8094 51.3114 19.795 51.3174C19.7806 51.3233 19.7674 51.3321 19.7564 51.3431C19.7453 51.3541 19.7366 51.3671 19.7306 51.3815C19.7246 51.3959 19.7216 51.4113 19.7216 51.4269V52.0246H17.9376V51.4269C17.9376 51.4113 17.9345 51.3959 17.9285 51.3815C17.9226 51.3671 17.9138 51.3541 17.9028 51.3431C17.8917 51.3321 17.8786 51.3233 17.8642 51.3174C17.8497 51.3114 17.8343 51.3083 17.8187 51.3083H14.9643C14.9487 51.3083 14.9332 51.3114 14.9188 51.3174C14.9044 51.3233 14.8913 51.3321 14.8802 51.3431C14.8692 51.3541 14.8604 51.3671 14.8544 51.3815C14.8485 51.3959 14.8454 51.4113 14.8454 51.4269V52.0246H13.0614V51.4269C13.0614 51.4113 13.0583 51.3959 13.0524 51.3815C13.0464 51.3671 13.0376 51.3541 13.0266 51.3431C13.0155 51.3321 13.0024 51.3233 12.988 51.3174C12.9736 51.3114 12.9581 51.3083 12.9425 51.3083H10.0881C10.0725 51.3083 10.0571 51.3114 10.0426 51.3174C10.0282 51.3233 10.0151 51.3321 10.004 51.3431C9.993 51.3541 9.98424 51.3671 9.97827 51.3815C9.97229 51.3959 9.96921 51.4113 9.96921 51.4269V52.0246H4.49839C3.74137 52.0246 3.01536 52.3243 2.48006 52.8578C1.94477 53.3913 1.64404 54.1148 1.64404 54.8692V56.1554C1.64404 56.9099 1.94477 57.6334 2.48006 58.1668C3.01536 58.7003 3.74137 59 4.49839 59H99.4054C100.162 59 100.888 58.7003 101.424 58.1668C101.959 57.6334 102.26 56.9099 102.26 56.1554V54.8692C102.26 54.1148 101.959 53.3913 101.424 52.8578C100.888 52.3243 100.162 52.0246 99.4054 52.0246Z" fill="#3F3D56"/>
<path d="M88.529 31.6627H61.0636V16.08H88.529V31.6627ZM61.3355 31.3917H88.257V16.351H61.3355V31.3917Z" fill="#3F3D56"/>
<path d="M38.2211 34.7792H13.747V19.6031H38.2211V34.7792ZM14.0189 34.5082H37.9492V19.8741H14.0189V34.5082Z" fill="#3F3D56"/>
<path d="M25.1811 28.9527L25.1576 28.6496C25.0875 28.0204 25.298 27.3329 25.8826 26.6338C26.4088 26.0161 26.7012 25.5617 26.7012 25.0373C26.7012 24.443 26.327 24.0468 25.5903 24.0352C25.169 24.0335 24.7571 24.1595 24.4093 24.3964L24.1287 23.6623C24.5146 23.3826 25.1811 23.1961 25.8008 23.1961C27.1455 23.1961 27.7535 24.0235 27.7535 24.9091C27.7535 25.7016 27.3092 26.2725 26.7479 26.9367C26.2334 27.5426 26.0463 28.0554 26.0814 28.6496L26.0931 28.9527L25.1811 28.9527ZM24.9238 30.5841C24.9175 30.489 24.9311 30.3937 24.9637 30.3041C24.9962 30.2145 25.0471 30.1327 25.113 30.0637C25.1789 29.9947 25.2585 29.94 25.3467 29.9033C25.4349 29.8665 25.5298 29.8483 25.6254 29.8499C26.0347 29.8499 26.3153 30.1528 26.3153 30.5841C26.3192 30.6775 26.304 30.7708 26.2708 30.8583C26.2376 30.9458 26.187 31.0257 26.122 31.0931C26.057 31.1606 25.979 31.2143 25.8926 31.251C25.8063 31.2877 25.7134 31.3066 25.6196 31.3066C25.5257 31.3066 25.4328 31.2877 25.3465 31.251C25.2601 31.2143 25.1821 31.1606 25.1171 31.0931C25.0522 31.0257 25.0015 30.9458 24.9683 30.8583C24.9351 30.7708 24.92 30.6775 24.9238 30.5841Z" fill="#D0CDE1"/>
<path d="M73.9933 25.5651L73.9699 25.2621C73.8998 24.6329 74.1103 23.9453 74.6949 23.2463C75.2211 22.6286 75.5134 22.1742 75.5134 21.6497C75.5134 21.0555 75.1392 20.6593 74.4026 20.6476C73.9812 20.6459 73.5694 20.7719 73.2215 21.0089L72.9409 20.2747C73.3268 19.995 73.9933 19.8086 74.613 19.8086C75.9578 19.8086 76.5658 20.636 76.5658 21.5215C76.5658 22.314 76.1214 22.885 75.5601 23.5491C75.0457 24.1551 74.8586 24.6678 74.8937 25.2621L74.9053 25.5651L73.9933 25.5651ZM73.7361 27.1966C73.7298 27.1015 73.7434 27.0062 73.7759 26.9166C73.8085 26.827 73.8593 26.7451 73.9253 26.6761C73.9912 26.6071 74.0708 26.5525 74.159 26.5157C74.2471 26.4789 74.342 26.4608 74.4376 26.4624C74.8469 26.4624 75.1276 26.7653 75.1276 27.1966C75.1314 27.29 75.1163 27.3833 75.0831 27.4708C75.0498 27.5582 74.9992 27.6381 74.9342 27.7056C74.8692 27.7731 74.7912 27.8268 74.7049 27.8635C74.6186 27.9002 74.5257 27.9191 74.4318 27.9191C74.338 27.9191 74.2451 27.9002 74.1587 27.8635C74.0724 27.8268 73.9944 27.7731 73.9294 27.7056C73.8644 27.6381 73.8138 27.5582 73.7806 27.4708C73.7473 27.3833 73.7322 27.29 73.7361 27.1966Z" fill="#D0CDE1"/>
<path d="M51.6304 47.038C58.1103 47.038 63.3633 41.803 63.3633 35.3453C63.3633 28.8876 58.1103 23.6526 51.6304 23.6526C45.1505 23.6526 39.8975 28.8876 39.8975 35.3453C39.8975 41.803 45.1505 47.038 51.6304 47.038Z" fill="#2F2E41"/>
<path d="M47.0989 51.3574L43.5913 50.7246L44.7289 43.426L48.2364 44.0588L47.0989 51.3574Z" fill="#2F2E41"/>
<path d="M55.2512 45.3243L51.7438 44.6915L50.6062 50.9541L54.1136 51.5869L55.2512 45.3243Z" fill="#2F2E41"/>
<path d="M56.4579 51.928C56.5797 51.3271 55.3748 50.5776 53.7667 50.2541C52.1587 49.9306 50.7564 50.1555 50.6347 50.7565C50.5129 51.3574 51.7178 52.1069 53.3259 52.4304C54.9339 52.7539 56.3362 52.529 56.4579 51.928Z" fill="#2F2E41"/>
<path d="M49.1526 51.7393C49.2334 51.1315 47.9805 50.4648 46.3543 50.2501C44.728 50.0354 43.3441 50.354 43.2633 50.9618C43.1826 51.5695 44.4354 52.2363 46.0617 52.451C47.688 52.6657 49.0718 52.347 49.1526 51.7393Z" fill="#2F2E41"/>
<path d="M52.4517 36.4815C54.6664 36.4815 56.4617 34.6923 56.4617 32.4852C56.4617 30.2782 54.6664 28.489 52.4517 28.489C50.2371 28.489 48.4418 30.2782 48.4418 32.4852C48.4418 34.6923 50.2371 36.4815 52.4517 36.4815Z" fill="white"/>
<path d="M54.0999 32.3848C54.8381 32.3848 55.4366 31.7885 55.4366 31.0528C55.4366 30.3171 54.8381 29.7207 54.0999 29.7207C53.3617 29.7207 52.7632 30.3171 52.7632 31.0528C52.7632 31.7885 53.3617 32.3848 54.0999 32.3848Z" fill="#3F3D56"/>
<path d="M42.3748 22.6249C42.1983 18.2961 45.942 14.6296 50.7364 14.4355C55.5309 14.2414 59.5606 17.5933 59.7371 21.9221C59.9135 26.2509 56.5807 27.2344 51.7863 27.4285C46.9918 27.6226 42.5512 26.9537 42.3748 22.6249Z" fill="white"/>
<path d="M62.8756 35.0041C66.0337 34.2827 68.4096 32.897 68.1823 31.9089C67.9551 30.9209 65.2107 30.7048 62.0527 31.4262C58.8946 32.1476 56.5188 33.5333 56.746 34.5213C56.9732 35.5094 59.7176 35.7255 62.8756 35.0041Z" fill="#2F2E41"/>
<path d="M39.8443 38.821C43.0024 38.0996 45.3783 36.7139 45.151 35.7259C44.9238 34.7379 42.1794 34.5217 39.0214 35.2431C35.8633 35.9645 33.4874 37.3503 33.7147 38.3383C33.9419 39.3263 36.6863 39.5424 39.8443 38.821Z" fill="#2F2E41"/>
<path d="M48.4079 39.9533C48.3454 40.2975 48.3515 40.6507 48.4259 40.9926C48.5004 41.3345 48.6416 41.6585 48.8417 41.946C49.0417 42.2335 49.2966 42.4789 49.5919 42.6682C49.8871 42.8575 50.2168 42.9871 50.5623 43.0494C50.9077 43.1117 51.2621 43.1056 51.6052 43.0314C51.9483 42.9573 52.2734 42.8165 52.5618 42.6171C52.8503 42.4178 53.0966 42.1637 53.2866 41.8695C53.4765 41.5753 53.6065 41.2467 53.669 40.9024C53.932 39.4546 52.8088 38.9422 51.356 38.6801C49.9031 38.418 48.6709 38.5054 48.4079 39.9533Z" fill="white"/>
<path d="M26.3036 1.77808H7.01166V20.0663H26.3036V1.77808Z" fill="#D0CDE1"/>
<path d="M24.1113 3.96283H9.20392V15.3236H24.1113V3.96283Z" fill="white"/>
<path d="M17.2978 16.6638H9.18915V17.0892H17.2978V16.6638Z" fill="#F2F2F2"/>
<path d="M17.2978 17.9398H9.18915V18.3651H17.2978V17.9398Z" fill="#F2F2F2"/>
<path d="M11.8565 11.3475C12.7993 11.3475 13.5636 10.5858 13.5636 9.64627C13.5636 8.70671 12.7993 7.94504 11.8565 7.94504C10.9137 7.94504 10.1494 8.70671 10.1494 9.64627C10.1494 10.5858 10.9137 11.3475 11.8565 11.3475Z" fill="#3F3D56"/>
<path d="M16.6576 11.3475C17.6004 11.3475 18.3647 10.5858 18.3647 9.64627C18.3647 8.70671 17.6004 7.94504 16.6576 7.94504C15.7148 7.94504 14.9505 8.70671 14.9505 9.64627C14.9505 10.5858 15.7148 11.3475 16.6576 11.3475Z" fill="#EF233C"/>
<path d="M21.4588 11.3475C22.4016 11.3475 23.1659 10.5858 23.1659 9.64627C23.1659 8.70671 22.4016 7.94504 21.4588 7.94504C20.516 7.94504 19.7517 8.70671 19.7517 9.64627C19.7517 10.5858 20.516 11.3475 21.4588 11.3475Z" fill="#E6E6E6"/>
<path d="M16.6576 3.69195C17.129 3.69195 17.5112 3.31112 17.5112 2.84134C17.5112 2.37156 17.129 1.99072 16.6576 1.99072C16.1862 1.99072 15.8041 2.37156 15.8041 2.84134C15.8041 3.31112 16.1862 3.69195 16.6576 3.69195Z" fill="#3F3D56"/>
<path d="M35.4796 37.1895H16.1877V55.4778H35.4796V37.1895Z" fill="#D0CDE1"/>
<path d="M33.2874 39.3743H18.3799V50.735H33.2874V39.3743Z" fill="white"/>
<path d="M26.8865 41.2413H21.6603V46.4495H26.8865V41.2413Z" fill="#EF233C"/>
<path d="M23.661 42.5437V48.868H30.0071V42.5437H23.661ZM29.7318 48.5937H23.9363V42.818H29.7318V48.5937Z" fill="#3F3D56"/>
<path d="M26.4739 51.8626H18.3652V52.2879H26.4739V51.8626Z" fill="#F2F2F2"/>
<path d="M25.8337 39.1034C26.3051 39.1034 26.6872 38.7226 26.6872 38.2528C26.6872 37.783 26.3051 37.4022 25.8337 37.4022C25.3623 37.4022 24.9802 37.783 24.9802 38.2528C24.9802 38.7226 25.3623 39.1034 25.8337 39.1034Z" fill="#3F3D56"/>
<path d="M85.7079 31.7144H66.4159V50.0027H85.7079V31.7144Z" fill="#D0CDE1"/>
<path d="M83.5156 33.8992H68.6082V45.2599H83.5156V33.8992Z" fill="white"/>
<path d="M77.6654 42.793H74.4584V43.7401H77.6654V42.793Z" fill="#3F3D56"/>
<path d="M81.5425 35.4191H70.5813V35.825H81.5425V35.4191Z" fill="#3F3D56"/>
<path d="M81.5425 36.7044H70.5813V37.1103H81.5425V36.7044Z" fill="#3F3D56"/>
<path d="M81.5425 37.9898H70.5813V38.3957H81.5425V37.9898Z" fill="#3F3D56"/>
<path d="M81.5425 39.2751H70.5813V39.6811H81.5425V39.2751Z" fill="#3F3D56"/>
<path d="M81.5425 40.5605H70.5813V40.9664H81.5425V40.5605Z" fill="#3F3D56"/>
<path d="M76.702 46.3876H68.5934V46.8129H76.702V46.3876Z" fill="#F2F2F2"/>
<path d="M79.9028 47.4508H68.5934V47.8761H79.9028V47.4508Z" fill="#F2F2F2"/>
<path d="M76.0619 33.6283C76.5333 33.6283 76.9155 33.2475 76.9155 32.7777C76.9155 32.3079 76.5333 31.9271 76.0619 31.9271C75.5905 31.9271 75.2084 32.3079 75.2084 32.7777C75.2084 33.2475 75.5905 33.6283 76.0619 33.6283Z" fill="#3F3D56"/>
</svg>
