<svg width="83" height="100" viewBox="0 0 83 100" fill="none" xmlns="http://www.w3.org/2000/svg">
<path d="M63.8983 34.4834C73.3883 34.4834 81.0814 26.7667 81.0814 17.2477C81.0814 7.7287 73.3883 0.0120239 63.8983 0.0120239C54.4083 0.0120239 46.7152 7.7287 46.7152 17.2477C46.7152 26.7667 54.4083 34.4834 63.8983 34.4834Z" fill="white"/>
<path d="M3.8497 65.3327C4.08262 65.3302 4.31421 65.2971 4.5385 65.2341C5.16484 65.0511 5.69295 64.6264 6.00666 64.0534C6.32037 63.4805 6.39398 62.8061 6.2113 62.1788C6.2113 62.0309 2.0539 47.481 9.9013 35.5183C15.055 27.6212 24.28 22.5576 37.318 20.414L30.9712 29.038C30.5862 29.5629 30.4244 30.2193 30.5213 30.8634C30.6181 31.5075 30.9656 32.087 31.4878 32.4752C31.9039 32.7957 32.4143 32.969 32.9392 32.968C33.3242 32.9685 33.704 32.8785 34.0479 32.7052C34.3919 32.5318 34.6904 32.2801 34.9195 31.9701L45.5098 17.568C45.7525 17.2423 45.9109 16.8614 45.971 16.4595C46.0311 16.0575 45.991 15.6469 45.8542 15.2642C45.7142 14.8808 45.4814 14.5382 45.1765 14.2672C44.8716 13.9963 44.5043 13.8054 44.1076 13.7119L26.8015 9.63395C26.4856 9.55372 26.157 9.53714 25.8346 9.5852C25.5123 9.63325 25.2027 9.74498 24.9238 9.91389C24.645 10.0828 24.4024 10.3055 24.2102 10.5691C24.018 10.8327 23.88 11.1319 23.8042 11.4494C23.7284 11.7669 23.7164 12.0963 23.7688 12.4184C23.8212 12.7406 23.9369 13.0491 24.1094 13.3261C24.2818 13.6031 24.5075 13.843 24.7733 14.0319C25.039 14.2208 25.3396 14.3549 25.6576 14.4264L33.1114 16.2005C20.4424 18.8863 11.2543 24.4549 5.83 32.8079C-3.2474 46.6679 1.3405 62.8687 1.5373 63.6079C1.69255 64.1025 1.99962 64.5355 2.41479 64.8452C2.82997 65.1548 3.3321 65.3254 3.8497 65.3327Z" fill="white"/>
<path d="M19.36 64.7167H19.2247C14.6662 64.7622 10.3117 66.6164 7.11601 69.8728C3.92029 73.1291 2.14411 77.5218 2.1769 82.0879C2.21576 86.6303 4.04209 90.9739 7.2593 94.1756C10.4765 97.3773 14.8248 99.1785 19.36 99.188H19.4953C21.7567 99.1791 23.9941 98.7242 26.08 97.8492C28.1658 96.9742 30.0591 95.6962 31.6519 94.0883C33.2446 92.4804 34.5056 90.574 35.3627 88.4779C36.2199 86.3819 36.6565 84.1373 36.6476 81.8723C36.6388 79.6072 36.1846 77.3661 35.311 75.2769C34.4374 73.1877 33.1615 71.2913 31.5562 69.6959C29.9509 68.1006 28.0476 66.8376 25.955 65.979C23.8623 65.1205 21.6214 64.6831 19.36 64.692V64.7167Z" fill="white"/>
<path d="M81.4258 35.1486C81.2268 34.5367 80.7967 34.027 80.2273 33.7286C79.658 33.4302 78.9947 33.3668 78.3793 33.5518C77.7639 33.7369 77.2452 34.1558 76.9342 34.719C76.6231 35.2822 76.5444 35.9449 76.7149 36.5654C76.7149 36.7133 80.9953 51.2262 73.2463 63.2506C68.1418 71.1846 58.9537 76.3344 45.9403 78.5766L52.2256 69.9526C52.6089 69.4233 52.7666 68.7631 52.6639 68.1174C52.5613 67.4716 52.2067 66.8931 51.6783 66.5092C51.1498 66.1253 50.4907 65.9673 49.846 66.0702C49.2012 66.173 48.6237 66.5281 48.2404 67.0574L37.81 81.4472C37.5639 81.7737 37.4028 82.1565 37.3413 82.5609C37.2798 82.9654 37.3199 83.3788 37.4578 83.7639C37.5957 84.1489 37.8272 84.4936 38.1313 84.7666C38.4355 85.0397 38.8027 85.2326 39.1999 85.328L56.5429 89.295C56.7266 89.3192 56.9127 89.3192 57.0964 89.295C57.4195 89.3306 57.7463 89.3021 58.0584 89.2112C58.3705 89.1203 58.6616 88.9686 58.9151 88.765C59.1687 88.5614 59.3797 88.3097 59.5362 88.0244C59.6926 87.7391 59.7915 87.4257 59.827 87.1021C59.8625 86.7785 59.8341 86.4511 59.7433 86.1385C59.6525 85.826 59.5011 85.5344 59.2978 85.2804C59.0945 85.0264 58.8433 84.815 58.5584 84.6583C58.2735 84.5016 57.9607 84.4026 57.6376 84.367L50.1715 82.6546C62.8282 79.8702 71.9671 74.2277 77.3791 65.8254C86.3458 52.064 81.6349 35.8262 81.4258 35.1486Z" fill="white"/>
</svg>
