<svg width="198" height="198" viewBox="0 0 198 198" fill="none" xmlns="http://www.w3.org/2000/svg">
<path fill-rule="evenodd" clip-rule="evenodd" d="M99 188C146.475 188 185.269 150.827 187.862 104H168V94H192.09H193.5H194.07C196.202 94 197.968 95.6722 197.993 97.804C197.998 98.2021 198 98.6008 198 99C198 153.676 153.676 198 99 198C56.3167 198 19.9424 170.988 6.039 133.126C5.11226 130.602 7.03335 128 9.72183 128H11.9789C13.6859 128 15.1967 129.088 15.8046 130.683C28.5734 164.193 61.0065 188 99 188ZM10.1381 94H48V104H5.91044H4.5H3.93005C1.79815 104 0.0323139 102.328 0.00707659 100.196C0.00236327 99.7979 0 99.3992 0 99C0 44.3238 44.3238 0 99 0C141.683 0 178.058 27.012 191.961 64.874C192.888 67.3977 190.967 70 188.278 70H186.021C184.314 70 182.803 68.9123 182.195 67.3172C169.427 33.807 136.994 10 99 10C51.5246 10 12.7313 47.1726 10.1381 94Z" fill="white"/>
<path fill-rule="evenodd" clip-rule="evenodd" d="M163.846 99.5L103.75 52.132L103.75 71.9428L93.75 64.1597L93.75 44.2499L93.75 44.0352L93.75 41.5076L93.75 37.7015C93.75 35.1961 96.6394 33.7945 98.6071 35.3454L101.596 37.7015L103.581 39.2662L103.75 39.3991L177.011 97.1439C178.535 98.345 178.535 100.655 177.011 101.856L103.75 159.601L103.581 159.734L101.596 161.298L98.6071 163.655C96.6394 165.206 93.75 163.804 93.75 161.298V157.492V154.965V154.75V134.438L103.75 126.656L103.75 146.868L163.846 99.5Z" fill="white"/>
<path d="M51.75 41.8245L124.923 99.5L51.75 157.175L51.75 41.8245Z" stroke="white" stroke-width="10"/>
</svg>
