<svg width="174" height="171" viewBox="0 0 174 171" fill="none" xmlns="http://www.w3.org/2000/svg">
<path d="M173.399 70.9059H153.25V38.7086H89.6005V26.6447H100.035V0.619308H73.9652V26.6447H84.4005V38.7086H20.7515V70.9059H0.601486V111.307H20.7515V170.981H153.25V111.307H173.399V70.9059V70.9059ZM79.1652 5.81042H94.8348V21.4536H79.1652V5.81042ZM5.80149 106.116V76.097H20.7515V106.116H5.80149V106.116ZM148.05 165.79H25.9515V43.8997H148.05V165.79V165.79ZM168.199 106.116H153.25V76.097H168.199V106.116Z" fill="white"/>
<path d="M61.3118 100.386C71.4806 100.386 79.7541 92.1267 79.7541 81.9739C79.7541 71.8222 71.4806 63.5628 61.3118 63.5628C51.1416 63.5628 42.8679 71.8222 42.8679 81.9739C42.8679 92.1267 51.1416 100.386 61.3118 100.386ZM61.3118 68.7539C68.6141 68.7539 74.5541 74.684 74.5541 81.9739C74.5541 89.2638 68.6141 95.1949 61.3118 95.1949C54.0094 95.1949 48.0679 89.2638 48.0679 81.9739C48.0679 74.684 54.0094 68.7539 61.3118 68.7539Z" fill="white"/>
<path d="M112.691 100.386C122.86 100.386 131.133 92.1267 131.133 81.9739C131.133 71.8222 122.86 63.5628 112.691 63.5628C102.522 63.5628 94.2483 71.8222 94.2483 81.9739C94.2483 92.1267 102.522 100.386 112.691 100.386ZM112.691 68.7539C119.993 68.7539 125.933 74.684 125.933 81.9739C125.933 89.2638 119.993 95.1949 112.691 95.1949C105.389 95.1949 99.4483 89.2638 99.4483 81.9739C99.4483 74.684 105.389 68.7539 112.691 68.7539Z" fill="white"/>
<path d="M51.5503 116.678C55.6063 132.983 70.1845 144.37 87.0005 144.37C103.817 144.37 118.394 132.983 122.45 116.678L123.251 113.456H50.7492L51.5503 116.678ZM116.417 118.648C111.943 130.888 100.286 139.179 87.0005 139.179C73.7137 139.179 62.0569 130.888 57.5831 118.648H116.417V118.648Z" fill="white"/>
</svg>
