<svg width="172" height="162" viewBox="0 0 172 162" fill="none" xmlns="http://www.w3.org/2000/svg">
<path d="M38.2771 44.671C40.3762 42.5674 43.7794 42.5674 45.8785 44.671L61.0815 59.9067C63.1805 62.0102 63.1805 65.4211 61.0815 67.5246L45.8785 82.7607C43.7794 84.8642 40.3762 84.8642 38.2771 82.7607C36.1781 80.6567 36.1781 77.2464 38.2771 75.1424L49.6792 63.7156L38.2771 52.289C36.1781 50.1853 36.1781 46.7747 38.2771 44.671Z" fill="white"/>
<path d="M59.125 91.5734C56.1564 91.5734 53.75 93.985 53.75 96.96C53.75 99.9351 56.1564 102.347 59.125 102.347H91.375C94.3436 102.347 96.75 99.9351 96.75 96.96C96.75 93.985 94.3436 91.5734 91.375 91.5734H59.125Z" fill="white"/>
<path fill-rule="evenodd" clip-rule="evenodd" d="M145.125 0C159.968 0 172 12.0585 172 26.9333V134.667C172 149.541 159.968 161.6 145.125 161.6H26.875C12.0324 161.6 0 149.541 0 134.667V26.9333C0 12.0584 12.0324 0 26.875 0H145.125ZM161.25 26.9333C161.25 18.0084 154.031 10.7733 145.125 10.7733H26.875C17.9694 10.7733 10.75 18.0084 10.75 26.9333V134.667C10.75 143.592 17.9694 150.827 26.875 150.827H145.125C154.031 150.827 161.25 143.592 161.25 134.667V26.9333Z" fill="white"/>
</svg>
