<svg width="217" height="77" viewBox="0 0 217 77" fill="none" xmlns="http://www.w3.org/2000/svg">
<path d="M108.5 76.9975C110.06 61.4417 120.199 30.7997 148.274 32.6662C158.983 33.3783 167.514 34.7422 174.73 35.8959C191.161 38.523 200.778 40.0605 213.783 30.3328V30.3361C213.782 37.3346 213.782 42.0013 209.104 51.3327C216.123 41.9998 218.462 32.6665 216.123 23.3332C206.764 32.6665 197.406 34.9997 185.708 32.6665C188.047 26.4443 190.387 14 188.048 6.9996C181.028 14 178.689 16.3333 174.01 18.6662C176.349 14 176.349 4.66671 174.01 0C166.99 13.9999 162.311 18.6665 141.255 20.9998C113.224 24.106 108.522 48.8827 108.5 60.5839C108.478 48.8824 103.775 24.1067 75.7448 21.0006C54.6884 18.6673 50.0096 14.0007 42.9902 0.000759543C40.6509 4.66746 40.6509 14.0007 42.9902 18.6669C38.3113 16.334 35.9717 14.0007 28.9525 7.00039C26.6132 14.0007 28.9529 26.445 31.2925 32.6673C19.5944 35.0005 10.2359 32.6673 0.877464 23.334C-1.46223 32.6673 0.876946 42.0005 7.89628 51.3337C3.21782 42.002 3.21752 37.3353 3.21706 30.3369V30.3336C16.2223 40.0612 25.8388 38.5238 42.2699 35.8967C49.4863 34.7429 58.0169 33.379 68.7263 32.667C96.8012 30.8004 106.94 61.4427 108.5 76.9985V76.9995C108.5 76.999 108.5 76.9995 108.5 76.9995C108.5 76.9995 108.5 76.9995 108.5 77V76.9975Z" fill="white"/>
</svg>
