<svg width="221" height="162" viewBox="0 0 221 162" fill="none" xmlns="http://www.w3.org/2000/svg">
<path d="M218.843 61.2605C218.228 60.7369 212.693 56.4435 200.803 56.4435C197.728 56.4435 194.551 56.7577 191.476 57.2813C189.221 41.2595 176.204 33.5103 175.692 33.0915L172.515 31.2066L170.465 34.2434C167.902 38.3274 165.955 42.9349 164.827 47.6472C162.675 56.7577 164.007 65.3445 168.517 72.6748C163.085 75.8163 154.27 76.5493 152.425 76.654H6.88162C3.08928 76.654 0.0144074 79.7956 0.0144074 83.6701C-0.190584 96.6551 1.96182 109.64 6.36914 121.892C11.3914 135.296 18.8736 145.244 28.5082 151.318C39.3727 158.124 57.1045 161.999 77.0911 161.999C86.1107 161.999 95.1304 161.161 104.047 159.486C116.449 157.182 128.339 152.784 139.306 146.396C148.326 141.055 156.423 134.249 163.29 126.29C174.872 112.991 181.739 98.1212 186.761 84.9267H188.811C201.418 84.9267 209.208 79.7956 213.513 75.3974C216.383 72.6748 218.535 69.3238 220.073 65.554L220.995 62.8313L218.843 61.2605Z" fill="#0091E2"/>
<path d="M21.372 72.3606H40.8462C41.7686 72.3606 42.5886 71.6276 42.5886 70.5804V52.7784C42.5886 51.836 41.8711 50.9983 40.8462 50.9983H21.372C20.4495 50.9983 19.6296 51.7313 19.6296 52.7784V70.5804C19.7321 71.6276 20.4495 72.3606 21.372 72.3606ZM48.2258 72.3606H67.7C68.6225 72.3606 69.4424 71.6276 69.4424 70.5804V52.7784C69.4424 51.836 68.7249 50.9983 67.7 50.9983H48.2258C47.3034 50.9983 46.4834 51.7313 46.4834 52.7784V70.5804C46.5859 71.6276 47.3034 72.3606 48.2258 72.3606ZM75.5921 72.3606H95.0663C95.9888 72.3606 96.8087 71.6276 96.8087 70.5804V52.7784C96.8087 51.836 96.0913 50.9983 95.0663 50.9983H75.5921C74.6697 50.9983 73.8497 51.7313 73.8497 52.7784V70.5804C73.8497 71.6276 74.5672 72.3606 75.5921 72.3606ZM102.548 72.3606H122.023C122.945 72.3606 123.765 71.6276 123.765 70.5804V52.7784C123.765 51.836 123.048 50.9983 122.023 50.9983H102.548C101.626 50.9983 100.806 51.7313 100.806 52.7784V70.5804C100.806 71.6276 101.626 72.3606 102.548 72.3606ZM48.2258 46.9143H67.7C68.6225 46.9143 69.4424 46.0765 69.4424 45.1341V27.3321C69.4424 26.3896 68.7249 25.5518 67.7 25.5518H48.2258C47.3034 25.5518 46.4834 26.2849 46.4834 27.3321V45.1341C46.5859 46.0765 47.3034 46.9143 48.2258 46.9143ZM75.5921 46.9143H95.0663C95.9888 46.9143 96.8087 46.0765 96.8087 45.1341V27.3321C96.8087 26.3896 96.0913 25.5518 95.0663 25.5518H75.5921C74.6697 25.5518 73.8497 26.2849 73.8497 27.3321V45.1341C73.8497 46.0765 74.5672 46.9143 75.5921 46.9143ZM102.548 46.9143H122.023C122.945 46.9143 123.765 46.0765 123.765 45.1341V27.3321C123.765 26.3896 122.945 25.5518 122.023 25.5518H102.548C101.626 25.5518 100.806 26.2849 100.806 27.3321V45.1341C100.806 46.0765 101.626 46.9143 102.548 46.9143ZM102.548 21.3631H122.023C122.945 21.3631 123.765 20.6301 123.765 19.583V1.78096C123.765 0.838502 122.945 0.000747681 122.023 0.000747681H102.548C101.626 0.000747681 100.806 0.733784 100.806 1.78096V19.583C100.806 20.5254 101.626 21.3631 102.548 21.3631ZM129.71 72.3606H149.184C150.106 72.3606 150.926 71.6276 150.926 70.5804V52.7784C150.926 51.836 150.209 50.9983 149.184 50.9983H129.71C128.787 50.9983 127.967 51.7313 127.967 52.7784V70.5804C128.07 71.6276 128.787 72.3606 129.71 72.3606Z" fill="#0091E2"/>
</svg>
