<svg width="42" height="92" viewBox="0 0 42 92" fill="none" xmlns="http://www.w3.org/2000/svg">
<path d="M41.1707 36.7065C36.3683 15.544 26.3589 9.91028 23.8056 5.92781C22.7527 4.17344 21.82 2.34984 21.0138 0.469543C20.8789 2.34954 20.6311 3.53394 19.0314 4.95961C15.8193 7.82034 2.17753 18.9249 1.02948 42.9701C-0.0401611 65.3891 17.5289 79.2133 19.8501 80.6421C21.6349 81.5195 23.8087 80.6609 24.8689 79.8557C33.3382 74.0496 44.9097 58.5709 41.1801 36.7065" fill="#10AA50"/>
<path d="M21.7416 68.7041C21.2993 74.2533 20.9825 77.4775 19.8595 80.6484C19.8595 80.6484 20.5966 85.9312 21.1142 91.5273H22.9461C23.383 87.5866 24.0502 83.6748 24.9442 79.8118C22.5728 78.6462 21.8325 73.5733 21.7416 68.7041Z" fill="#B8C4C2"/>
<path d="M24.9411 79.8149C22.5446 78.7089 21.8514 73.5295 21.7447 68.7041C22.3374 60.7444 22.5101 52.759 22.2623 44.7811C22.1368 40.595 22.3219 6.00927 21.2303 0.945801C21.977 2.66075 22.8373 4.32406 23.8056 5.92467C26.3589 9.91027 36.3715 15.544 41.1707 36.7065C44.9097 58.5333 33.4009 73.9713 24.9411 79.8149Z" fill="#12924F"/>
</svg>
