<svg width="97" height="109" viewBox="0 0 97 109" fill="none" xmlns="http://www.w3.org/2000/svg">
<path d="M48.9813 109.001C47.5324 109.001 46.0935 108.621 44.8233 107.889L31.5879 100.049C29.6111 98.9432 30.5757 98.552 31.2277 98.3266C33.8634 97.4032 34.3983 97.1947 37.2117 95.5962C37.5074 95.4274 37.8945 95.4869 38.1971 95.6657L48.3651 101.702C48.7322 101.901 49.2532 101.901 49.5936 101.702L89.2392 78.8066C89.6063 78.5981 89.8445 78.1711 89.8445 77.7342V31.9625C89.8445 31.5057 89.6063 31.0987 89.2312 30.8703L49.6016 7.99433C49.2344 7.7759 48.7481 7.7759 48.3809 7.99433L8.75919 30.8703C8.37514 31.0887 8.13101 31.5157 8.13101 31.9525V77.7243C8.13101 78.1612 8.36918 78.5782 8.74628 78.7867L19.6029 85.0617C25.4977 88.0106 29.1 84.5355 29.1 81.0405V35.8645C29.1 35.2191 29.6061 34.7227 30.2511 34.7227H35.2726C35.8978 34.7227 36.4138 35.2191 36.4138 35.8645V81.0604C36.4138 88.924 32.1267 93.4416 24.674 93.4416C22.3816 93.4416 20.5754 93.4416 15.5342 90.9594L5.13402 84.9624C2.56376 83.4731 0.975952 80.693 0.975952 77.7243V31.9525C0.975952 28.9739 2.56376 26.1938 5.13402 24.7244L44.8193 1.81862C47.33 0.398799 50.6644 0.398799 53.1553 1.81862L92.7909 24.7343C95.3512 26.2137 96.949 28.9838 96.949 31.9625V77.7342C96.949 80.703 95.3512 83.4731 92.7909 84.9624L53.1553 107.868C51.885 108.603 50.4461 108.98 48.9774 108.98" fill="#689F63"/>
<path d="M61.2273 77.4612C43.8805 77.4612 40.2434 69.4943 40.2434 62.8122C40.2434 62.1768 40.7555 61.6704 41.3916 61.6704H46.5123C47.0779 61.6704 47.5543 62.0824 47.6436 62.6414C48.4176 67.862 50.72 70.4951 61.2094 70.4951C69.5652 70.4951 73.118 68.6066 73.118 64.1734C73.118 61.6217 72.1057 59.7253 59.1254 58.4544C48.2688 57.3821 41.5603 54.9893 41.5603 46.3016C41.5603 38.299 48.3085 33.5331 59.6117 33.5331C72.3042 33.5331 78.5959 37.9415 79.3898 47.4136C79.4196 47.7413 79.3005 48.059 79.0822 48.2973C78.8638 48.5256 78.5562 48.6646 78.2386 48.6646H73.0882C72.5523 48.6646 72.0859 48.2873 71.9767 47.771C70.7363 42.2804 67.7393 40.523 59.5918 40.523C50.4719 40.523 49.41 43.7002 49.41 46.0832C49.41 48.9724 50.6604 49.8164 62.9659 51.4447C75.1523 53.0631 80.9379 55.3467 80.9379 63.9153C80.9379 72.5533 73.7332 77.5078 61.1697 77.5078L61.2273 77.4612Z" fill="#689F63"/>
</svg>
