<svg width="707" height="566" viewBox="0 0 707 566" fill="none" xmlns="http://www.w3.org/2000/svg">
<g clip-path="url(#clip0_207:189)">
<path d="M118.652 565.855C118.652 565.855 108.466 540.771 139.022 521.958L118.652 565.855Z" fill="#F0F0F0"/>
<path d="M106.125 565.398C106.125 565.398 103.018 547.52 78.9696 547.673L106.125 565.398Z" fill="#F0F0F0"/>
<path d="M459.692 565.855C459.692 565.855 449.506 540.771 480.062 521.958L459.692 565.855Z" fill="#F0F0F0"/>
<path d="M447.165 565.398C447.165 565.398 444.058 547.52 420.01 547.673L447.165 565.398Z" fill="#F0F0F0"/>
<path d="M451.302 403.441C500.2 403.441 539.839 363.782 539.839 314.861C539.839 265.94 500.2 226.281 451.302 226.281C402.404 226.281 362.765 265.94 362.765 314.861C362.765 363.782 402.404 403.441 451.302 403.441Z" fill="#F0F0F0"/>
<path d="M451.545 314.861H451.789L456.167 566H446.924L451.545 314.861Z" fill="#F0F0F0"/>
<path d="M641.39 447.434C677.055 447.434 705.966 418.508 705.966 382.827C705.966 347.145 677.055 318.219 641.39 318.219C605.725 318.219 576.814 347.145 576.814 382.827C576.814 418.508 605.725 447.434 641.39 447.434Z" fill="#F0F0F0"/>
<path d="M641.568 382.826H641.745L644.938 566H638.196L641.568 382.826Z" fill="#F0F0F0"/>
<path d="M283.797 383.483C285.034 383.341 286.224 382.929 287.285 382.277C288.346 381.624 289.251 380.747 289.936 379.707C290.621 378.667 291.07 377.489 291.252 376.257C291.433 375.024 291.341 373.767 290.984 372.574L315.532 354.86L300.829 349.273L279.772 366.951C277.808 367.684 276.181 369.112 275.199 370.965C274.217 372.818 273.949 374.967 274.445 377.005C274.941 379.043 276.167 380.828 277.891 382.022C279.614 383.216 281.716 383.735 283.797 383.483H283.797Z" fill="#FFB6B6"/>
<path d="M265.8 557.239L258.006 557.238L254.298 527.16H265.802L265.8 557.239Z" fill="#FFB6B6"/>
<path d="M267.788 564.799L242.655 564.798V564.48C242.655 561.884 243.686 559.395 245.521 557.559C247.355 555.724 249.843 554.693 252.438 554.693H252.438L267.789 554.693L267.788 564.799Z" fill="#2F2E41"/>
<path d="M206.264 557.239L198.469 557.238L194.762 527.16H206.265L206.264 557.239Z" fill="#FFB6B6"/>
<path d="M208.252 564.799L183.119 564.798V564.48C183.119 561.884 184.15 559.395 185.984 557.559C187.819 555.724 190.307 554.693 192.901 554.693H192.902L208.252 554.693L208.252 564.799Z" fill="#2F2E41"/>
<path d="M212.284 389.975L195.766 480.354L189.988 552.141L208.746 551.218L219.424 481.507L245.964 420.809L253.863 551.05L271.131 551.106L280.422 386.36L212.284 389.975Z" fill="#2F2E41"/>
<path d="M282.537 286.528L259.383 277.311L232.822 280.352L210.305 292.806C210.305 292.806 217.193 379.232 207.209 399.504C207.209 399.504 215.208 410.59 247.803 407.884C247.803 407.884 279.553 403.869 280.341 393.453C281.128 383.036 281.294 364.097 281.294 364.097L292.315 326.1L282.537 286.528Z" fill="#EF233C"/>
<path d="M219.355 294.469L210.305 292.806C210.305 292.806 200.675 297.03 200.774 309.619C200.872 322.207 183.761 364.412 204.233 366.181C224.706 367.951 219.355 336.252 219.355 336.252V294.469Z" fill="#EF233C"/>
<path d="M275.193 291.891L282.537 286.528C282.537 286.528 293.748 289.062 297.895 298.092C297.895 298.092 343.872 331.453 331.226 344.106C318.58 356.758 292.801 372.33 292.801 372.33L283.256 361.518L306.937 340.055L287.51 322.349L275.193 291.891Z" fill="#EF233C"/>
<path d="M263.452 253.349C263.449 258.39 261.445 263.224 257.88 266.788C254.316 270.352 249.483 272.354 244.444 272.354C239.404 272.354 234.572 270.352 231.007 266.788C227.443 263.224 225.439 258.39 225.435 253.349V252.619C225.63 247.645 227.767 242.945 231.386 239.529C235.006 236.114 239.819 234.254 244.794 234.35C249.769 234.445 254.508 236.488 257.993 240.041C261.479 243.593 263.434 248.371 263.437 253.349H263.452Z" fill="#FFB6B6"/>
<path d="M247.333 250.283C248.549 250.084 249.867 249.894 250.957 250.453C253.325 251.665 252.781 255.101 254.074 257.368C254.585 258.269 255.412 259.003 255.752 259.977C256.093 260.95 255.884 262.167 256.419 263.106C257.192 264.463 259.288 264.663 260.665 263.855C261.967 262.953 262.91 261.621 263.33 260.094C263.788 258.799 264.172 257.368 265.276 256.522C265.677 256.293 266.037 255.999 266.341 255.651C266.569 255.19 266.657 254.672 266.594 254.162C266.594 250.872 266.083 248.322 266.828 245.135C268.019 239.996 269.109 237.455 265.334 233.645C263.402 231.719 260.915 230.446 258.223 230.005C255.791 229.606 252.211 233.003 249.75 232.925C243.49 232.677 238.208 226.876 232.24 228.75C229.631 229.57 227.368 231.236 225.81 233.485C222.892 237.786 223.154 239.451 223.577 244.585C223.571 244.974 223.685 245.357 223.903 245.68C224.122 245.942 224.477 246.083 224.691 246.351C224.921 246.705 225.008 247.133 224.934 247.548C224.869 248.385 224.674 249.205 224.356 249.981C224.275 250.111 224.226 250.257 224.211 250.409C224.195 250.561 224.215 250.714 224.268 250.857C224.388 251.02 224.559 251.137 224.754 251.188C227.186 252.064 229.813 250.376 232.415 250.419C235.017 250.463 237.488 252.205 240.173 251.826C242.542 251.461 244.945 250.677 247.333 250.283Z" fill="#2F2E41"/>
<path d="M247.207 356.009C247.045 356.071 246.876 356.115 246.704 356.139L225.597 359.086C225.087 359.16 224.566 359.057 224.122 358.795C223.678 358.533 223.336 358.127 223.152 357.645L204.984 310.346C204.866 310.04 204.816 309.712 204.837 309.385C204.857 309.057 204.948 308.738 205.103 308.449C205.258 308.16 205.473 307.908 205.735 307.709C205.996 307.511 206.297 307.371 206.617 307.3H206.617L226.466 302.868C226.619 302.834 226.767 302.78 226.906 302.707L246.212 292.608C246.361 292.53 246.519 292.469 246.682 292.426L267.928 286.759C268.472 286.613 269.051 286.674 269.553 286.93C270.055 287.186 270.444 287.619 270.645 288.145L286.487 329.387C286.626 329.746 286.671 330.135 286.619 330.516C286.567 330.898 286.418 331.26 286.187 331.568L280.708 338.929C280.451 339.276 280.1 339.542 279.697 339.696L267.724 344.3C267.638 344.333 267.555 344.373 267.475 344.418L247.524 355.859C247.422 355.917 247.316 355.967 247.207 356.009V356.009Z" fill="white"/>
<path d="M257.027 293.064L254.329 293.784L247.179 295.692L247.167 295.695L237.378 300.815L233.745 302.716L233.744 302.717L228.288 305.57L228.138 305.604L222.471 306.869L219.731 307.481L208.559 309.976L226.098 355.636L237.611 354.028L240.434 353.633L246.45 352.792L246.52 352.783L265.854 341.697L277.617 337.174L282.988 329.958L267.721 290.212L257.027 293.064Z" fill="#E4E4E4"/>
<path d="M270.236 296.76L212.073 319.124L213.069 321.717L271.232 299.353L270.236 296.76Z" fill="white"/>
<path d="M273.556 305.404L215.393 327.767L216.389 330.36L274.552 307.997L273.556 305.404Z" fill="white"/>
<path d="M280.263 322.864L222.1 345.227L223.096 347.82L281.259 325.457L280.263 322.864Z" fill="white"/>
<path d="M257.027 293.064L274.44 338.396L271.848 339.392L254.329 293.784L257.027 293.064Z" fill="white"/>
<path d="M237.378 300.815L233.803 310.769L232.563 314.221L229.671 322.278L229.051 324L228.431 325.73L227.614 328.002L221.753 344.323L220.229 340.356L225.008 327.047L226.09 324.033L226.248 323.594L227.526 320.031L229.14 315.538L230.38 312.085L233.743 302.717L233.745 302.716L237.378 300.815Z" fill="white"/>
<path d="M222.471 306.868L240.433 353.633L237.611 354.028L219.731 307.481L222.471 306.868Z" fill="white"/>
<path d="M218.626 351.648C223.193 351.648 226.895 347.945 226.895 343.376C226.895 338.807 223.193 335.103 218.626 335.103C214.059 335.103 210.357 338.807 210.357 343.376C210.357 347.945 214.059 351.648 218.626 351.648Z" fill="#FFB6B6"/>
<path d="M560.061 294.022C641.213 294.022 707 228.203 707 147.011C707 65.819 641.213 0 560.061 0C478.908 0 413.121 65.819 413.121 147.011C413.121 228.203 478.908 294.022 560.061 294.022Z" fill="#E4E4E4"/>
<path opacity="0.1" d="M668.556 48.8192C682.262 80.8959 684.121 116.803 673.802 150.126C663.482 183.448 641.656 212.013 612.223 230.716C582.79 249.42 547.669 257.044 513.135 252.225C478.602 247.406 446.906 230.459 423.712 204.411C432.084 224.009 444.616 241.551 460.437 255.822C476.259 270.093 494.993 280.752 515.341 287.06C535.688 293.369 557.164 295.176 578.279 292.356C599.394 289.536 619.644 282.157 637.626 270.73C655.608 259.303 670.891 244.102 682.418 226.178C693.945 208.255 701.439 188.039 704.381 166.93C707.323 145.822 705.643 124.326 699.457 103.931C693.271 83.537 682.727 64.7319 668.556 48.8192V48.8192Z" fill="black"/>
<path d="M559.657 147.01H559.253L551.987 563.811H567.327L559.657 147.01Z" fill="#E4E4E4"/>
<path d="M666.905 565.588H0.798689C0.586863 565.588 0.383713 565.504 0.23393 565.354C0.0841467 565.205 0 565.001 0 564.789C0 564.577 0.0841467 564.374 0.23393 564.224C0.383713 564.074 0.586863 563.99 0.798689 563.99H666.905C667.117 563.99 667.32 564.074 667.47 564.224C667.62 564.374 667.704 564.577 667.704 564.789C667.704 565.001 667.62 565.205 667.47 565.354C667.32 565.504 667.117 565.588 666.905 565.588Z" fill="#CACACA"/>
</g>
<defs>
<clipPath id="clip0_207:189">
<rect width="707" height="566" fill="white"/>
</clipPath>
</defs>
</svg>
