<svg width="167" height="165" viewBox="0 0 167 165" fill="none" xmlns="http://www.w3.org/2000/svg">
<path d="M133.048 12.4391V14.2012L90.723 0.836035C85.6732 -0.765179 80.1727 -0.0437508 75.7071 2.80601L58.1915 13.9528C53.8409 16.7072 50.8958 21.2089 50.1137 26.2985H11.0867C9.55607 26.2985 8.31494 27.5397 8.31494 29.0703V90.05C8.31494 91.5806 9.55607 92.8218 11.0867 92.8218H127.502C129.033 92.8218 130.274 91.5806 130.274 90.05V60.4474C130.647 60.1665 131.013 59.8733 131.369 59.5602H133.046V65.1038C133.046 66.6345 134.287 67.8756 135.818 67.8756H166.308V62.332H138.59V15.2114H166.308V9.66779H135.818C134.287 9.66779 133.046 10.9089 133.046 12.4396L133.048 12.4391ZM89.3703 73.4187C90.4716 73.4187 91.5692 73.2938 92.642 73.0463C88.9794 76.9591 86.679 81.9506 86.0838 87.2778H72.0676V31.8418H74.1663C76.5508 31.8418 78.8362 32.7884 80.5215 34.4738C82.2068 36.1603 83.1547 38.4458 83.1535 40.8302C83.1535 43.2135 82.2068 45.4989 80.5215 47.1854L79.0947 48.6121V48.6109C76.3687 51.3369 74.8379 55.0329 74.8379 58.8865C74.8379 62.7411 76.3686 66.4372 79.0947 69.1621C81.8195 71.8882 85.5158 73.419 89.3704 73.419L89.3703 73.4187ZM108.101 65.2605C106.053 65.4881 104.041 65.9695 102.113 66.6946L108.101 60.7069V65.2605ZM108.101 70.8475V87.2778H91.672C92.2759 83.1349 94.2013 79.2988 97.1624 76.3391C100.122 73.378 103.958 71.4525 108.101 70.8487V70.8475ZM66.524 87.2778H55.4368V31.8417H66.524V87.2778ZM49.8932 87.2778H35.8771C35.2398 81.6575 32.7155 76.4208 28.7163 72.4215C24.7172 68.4222 19.4804 65.8978 13.8601 65.2608V53.8593C19.4804 53.2221 24.717 50.6977 28.7163 46.6986C32.7157 42.6994 35.2401 37.4626 35.8771 31.8424H49.8932V87.2778ZM30.2888 31.8417C29.685 35.9845 27.7596 39.8207 24.7984 42.7804C21.8385 45.7415 18.0026 47.667 13.8598 48.2707V31.8417H30.2888ZM13.8598 70.8497C18.0026 71.4535 21.8388 73.3789 24.7984 76.3401C27.7596 79.3 29.6851 83.1359 30.2888 87.2787H13.8598V70.8497ZM124.732 87.2787H113.645V63.2952C117.254 64.4237 121.122 64.4237 124.732 63.2952V87.2787ZM130.275 54.0171C129.54 54.0171 128.835 54.3091 128.315 54.8288C125.893 57.2467 122.61 58.6029 119.188 58.6029C115.766 58.6029 112.483 57.2455 110.06 54.8288C108.977 53.7473 107.224 53.7473 106.141 54.8288L95.726 65.2441H95.7248C94.0406 66.9307 91.7539 67.8798 89.3683 67.8811C86.9838 67.8811 84.6958 66.9344 83.0106 65.2479C81.324 63.5613 80.3774 61.2745 80.3774 58.8901C80.3786 56.5044 81.3277 54.2177 83.0143 52.5324L84.441 51.1057L84.4423 51.1069C87.1671 48.3809 88.6978 44.6849 88.6978 40.8313C88.6991 36.9767 87.1672 33.2806 84.4423 30.5557C81.7175 27.8296 78.0212 26.2988 74.1666 26.2988H55.7467C56.4693 23.126 58.4182 20.3691 61.1677 18.6293L78.6832 7.48256C81.7681 5.51509 85.5668 5.01639 89.0539 6.12264L133.048 20.0149V54.0178L130.275 54.0171Z" fill="white"/>
<path d="M16.6319 162.116V159.345H24.9473C26.478 159.345 27.7191 158.103 27.7191 156.573V153.644L27.9815 153.831C39.4165 161.999 53.3781 165.845 67.3822 164.687C81.3873 163.527 94.5262 157.438 104.461 147.501L125.305 126.657C128.287 123.675 129.577 119.396 128.735 115.262C127.895 111.129 125.038 107.692 121.126 106.112C117.216 104.532 112.773 105.02 109.297 107.408C107.778 104.132 104.696 101.857 101.119 101.37C97.5413 100.883 93.9627 102.254 91.6252 105.005C88.6888 103.246 85.0942 102.983 81.9324 104.293C78.7708 105.605 76.4174 108.336 75.5884 111.656L72.6742 123.311H56.5842L54.6241 121.351C51.1557 117.884 46.6429 115.651 41.7823 114.998C36.9204 114.345 31.9796 115.306 27.718 117.735V114.995C27.718 113.465 26.4769 112.224 24.9462 112.224H16.6308C16.6308 110.693 15.3897 109.452 13.859 109.452H0V114.995H11.0872V159.344H0V164.888H13.859C15.3897 164.888 16.6308 163.647 16.6308 162.116L16.6319 162.116ZM98.4714 106.969C99.9451 106.6 101.508 106.915 102.723 107.827C103.938 108.739 104.678 110.151 104.736 111.67L85.3943 131.012C85.0726 130.009 84.6085 129.058 84.0171 128.187L95.3678 109.268C96.0546 108.118 97.1707 107.29 98.4713 106.969L98.4714 106.969ZM80.9669 113.001C81.3232 111.579 82.255 110.369 83.5407 109.664C84.8264 108.957 86.3484 108.82 87.7393 109.284C88.0548 109.39 88.3604 109.525 88.6512 109.688L79.7777 124.477C79.2864 124.232 78.7766 124.023 78.2544 123.853L80.9669 113.001ZM38.807 120.344C43.2729 120.332 47.5567 122.106 50.7058 125.273L53.4776 128.044C53.9973 128.564 54.7026 128.856 55.4376 128.856H74.8402C76.8213 128.856 78.6514 129.913 79.6413 131.628C80.6312 133.343 80.6312 135.457 79.6413 137.172C78.6514 138.887 76.8213 139.943 74.8402 139.943H49.894V145.487H74.8402C76.8448 145.486 78.8123 144.941 80.5324 143.911C82.2524 142.881 83.6606 141.405 84.6084 139.638L111.447 112.8H111.448C113.224 111.026 115.81 110.333 118.235 110.984C120.659 111.634 122.553 113.527 123.202 115.951C123.853 118.375 123.16 120.963 121.387 122.739L100.543 143.583C91.5342 152.591 79.6218 158.112 66.9263 159.163C54.2293 160.214 41.5718 156.727 31.2033 149.322L27.7188 146.833V124.518C30.7802 121.818 34.7237 120.333 38.806 120.345L38.807 120.344ZM22.1762 117.769V153.802H16.6326V117.769H22.1762Z" fill="white"/>
</svg>
