<svg width="136" height="155" viewBox="0 0 136 155" fill="none" xmlns="http://www.w3.org/2000/svg">
<path fill-rule="evenodd" clip-rule="evenodd" d="M125.646 31.7779L76.9896 2.82356C71.1821 -0.63243 64.0239 -0.63243 58.2165 2.82356L9.56013 31.7779C3.7544 35.2339 0.176147 41.6195 0.176147 48.5315V106.44C0.176147 113.35 3.7544 119.74 9.56183 123.196L58.2182 152.145C61.1219 153.874 64.3604 154.735 67.6039 154.735C70.8457 154.735 74.0842 153.874 76.9879 152.145L125.644 123.196C131.452 119.74 135.032 113.35 135.032 106.44V48.5315C135.032 41.6195 131.452 35.2339 125.646 31.7779Z" fill="#FEFEFE"/>
<path fill-rule="evenodd" clip-rule="evenodd" d="M59.9189 149.18L11.2625 120.231C6.50338 117.398 3.54699 112.115 3.54699 106.439V48.5322C3.54699 42.8568 6.50338 37.5732 11.2608 34.7423L59.9189 5.78797C62.2517 4.39978 64.9091 3.66566 67.6038 3.66566C70.2968 3.66566 72.9542 4.39978 75.2887 5.78797L123.945 34.7423C127.955 37.1286 130.66 41.2608 131.421 45.8955C129.807 42.4429 126.167 41.5044 121.927 43.9878L75.8953 72.4908C70.1558 75.8548 65.9234 79.6293 65.92 86.5668V143.428C65.9166 147.582 67.5902 150.274 70.1609 151.054C69.3165 151.2 68.4652 151.302 67.6038 151.302C64.9091 151.302 62.2517 150.568 59.9189 149.18ZM125.646 31.7769L76.9895 2.82423C74.0858 1.09538 70.8439 0.231812 67.6038 0.231812C64.362 0.231812 61.1201 1.09538 58.2164 2.82423L9.56001 31.7769C3.75428 35.2329 0.176025 41.6202 0.176025 48.5322V106.439C0.176025 113.349 3.75428 119.739 9.56171 123.195L58.2181 152.145C61.1235 153.873 64.362 154.736 67.6038 154.736C70.8456 154.736 74.0841 153.873 76.9878 152.145L125.646 123.195C131.453 119.739 135.032 113.349 135.032 106.439V48.5322C135.032 41.6202 131.453 35.2329 125.646 31.7769Z" fill="#3E474A"/>
<path fill-rule="evenodd" clip-rule="evenodd" d="M112.891 112.038L100.775 119.308C100.454 119.495 100.218 119.706 100.216 120.093V123.271C100.216 123.659 100.476 123.821 100.797 123.632L113.1 116.136C113.421 115.949 113.471 115.589 113.472 115.203V112.399C113.472 112.012 113.212 111.851 112.891 112.038Z" fill="#47B353"/>
<path fill-rule="evenodd" clip-rule="evenodd" d="M87.0912 85.2847C87.4837 85.0854 87.8065 85.3307 87.8116 85.8451L87.8524 90.0471C89.6075 89.3471 91.1316 89.1597 92.5129 89.4799C92.812 89.56 92.9445 89.9688 92.8221 90.4542L91.8995 94.1776C91.8282 94.4587 91.6702 94.7431 91.4799 94.9202C91.4 94.9986 91.3185 95.0599 91.2369 95.1008C91.1129 95.1638 90.9905 95.1843 90.8733 95.1604C90.243 95.0173 88.7444 94.6886 86.3861 95.886C83.9122 97.1413 83.0474 99.296 83.0644 100.895C83.0848 102.805 84.0617 103.384 87.4361 103.442C91.9318 103.517 93.8739 105.486 93.9214 110.025C93.9673 114.483 91.5937 119.269 87.9628 122.202L88.0427 126.361C88.0477 126.862 87.7232 127.436 87.3307 127.635L84.8739 129.054C84.4797 129.254 84.1569 129.008 84.1518 128.508L84.1093 124.416C82.0041 125.293 79.8718 125.505 78.5092 124.956C78.2526 124.856 78.1421 124.476 78.2441 124.043L79.1344 120.282C79.2058 119.986 79.3621 119.69 79.5745 119.501C79.6492 119.427 79.7274 119.371 79.8055 119.332C79.9466 119.26 80.0842 119.245 80.2014 119.289C81.6694 119.785 83.5469 119.553 85.353 118.637C87.6468 117.474 89.181 115.128 89.1572 112.798C89.1352 110.684 87.9934 109.805 85.2171 109.785C81.683 109.795 78.3885 109.097 78.3341 103.881C78.29 99.5873 80.5175 95.1195 84.043 92.2938L83.9989 88.0951C83.9938 87.579 84.3081 87.0118 84.7125 86.8074L87.0912 85.2847Z" fill="#FEFEFE"/>
</svg>
