<svg width="134" height="135" viewBox="0 0 134 135" fill="none" xmlns="http://www.w3.org/2000/svg">
<path d="M131.453 61.0896L72.9529 2.6297C69.587 -0.737405 64.1233 -0.737405 60.7532 2.6297L48.6063 14.7709L64.0142 30.1702C67.5962 28.9614 71.7018 29.7719 74.5557 32.6247C77.4244 35.4954 78.2295 39.6337 76.9898 43.2257L91.8403 58.0678C95.4331 56.8304 99.5783 57.6298 102.447 60.5022C106.458 64.5096 106.458 71.0032 102.447 75.0117C98.4357 79.0214 91.9385 79.0214 87.9248 75.0117C84.9089 71.9952 84.163 67.5665 85.6905 63.8528L71.8408 50.0109L71.8396 86.4357C72.8175 86.9195 73.7403 87.5652 74.5551 88.3761C78.5648 92.383 78.5648 98.8754 74.5551 102.889C70.5443 106.896 64.0441 106.896 60.0374 102.889C56.0272 98.8758 56.0272 92.3834 60.0374 88.3761C61.0285 87.3873 62.1753 86.6389 63.3989 86.1373V49.374C62.1747 48.8744 61.0293 48.1316 60.0367 47.1349C56.9991 44.1014 56.2676 39.6457 57.8254 35.9177L42.6362 20.7347L2.52769 60.8195C-0.842361 64.1892 -0.842361 69.6498 2.52769 73.0171L61.0241 131.477C64.3919 134.844 69.8537 134.844 73.2262 131.477L131.452 73.2933C134.821 69.9246 134.821 64.4623 131.452 61.0945" fill="#F05133"/>
</svg>
