<svg width="143" height="195" viewBox="0 0 143 195" fill="none" xmlns="http://www.w3.org/2000/svg">
<path d="M2.05874 105.437C2.33695 111.186 8.06807 108.507 10.6276 106.721C13.0759 104.991 13.7992 106.442 14.0218 103.093C14.1887 100.86 14.4113 98.6835 14.3 96.4509C10.572 96.116 6.56574 97.009 3.50543 99.2417C1.89181 100.358 -1.00158 104.042 2.05874 105.437Z" fill="#F6D2A2"/>
<path d="M116.292 176.101C120.688 178.836 128.756 187.097 122.134 191.116C115.791 196.92 112.23 184.697 106.666 183.022C109.058 179.729 112.063 176.715 116.292 176.101Z" fill="#F6D2A2"/>
<path d="M37.614 185.422C32.4393 186.204 29.5459 190.892 25.2058 193.292C21.144 195.692 19.586 192.511 19.2521 191.841C18.6401 191.562 18.6957 192.12 17.6941 191.116C13.9105 185.143 21.5891 180.79 25.5953 177.831C31.1595 176.715 34.665 181.571 37.614 185.422Z" fill="#F6D2A2"/>
<path d="M140.719 104.712C140.44 110.461 134.709 107.782 132.15 105.995C129.702 104.265 128.978 105.716 128.756 102.367C128.589 100.135 128.366 97.9579 128.477 95.7252C132.205 95.3903 136.212 96.2834 139.272 98.516C140.83 99.6324 143.779 103.316 140.719 104.712Z" fill="#F6D2A2"/>
<path d="M125.528 34.6062C145.393 27.5733 129.868 0.279085 112.564 12.3354C101.213 2.56756 85.5774 0.781433 69.163 0.781433C53.0825 2.06521 37.7809 5.02348 27.0976 14.4006C9.84861 3.23736 -6.06501 30.0292 14.1887 36.783C8.5132 58.8864 14.9677 81.4362 14.0774 103.93C13.2428 124.136 7.95678 151.207 19.1408 169.347C28.6556 184.864 49.1319 190.39 65.9914 191.004C87.5249 191.785 113.621 186.483 124.082 165.552C134.097 145.625 131.315 120.787 130.035 99.2975C128.756 77.5849 131.148 55.5374 125.528 34.6062Z" fill="#69D7E2"/>
<path d="M142.221 101.307C141.665 100.135 140.607 98.7951 139.606 98.0695C137.046 96.2276 133.763 95.2229 130.369 95.1112C130.258 91.6506 130.147 87.8551 130.147 83.0549V78.7012C130.091 64.9703 129.924 58.9422 129.145 51.4069C128.533 45.4904 127.587 40.0204 126.252 34.8853C130.759 33.155 133.708 30.3083 134.876 26.6244C135.989 23.2196 135.433 19.3683 133.541 15.9635C131.593 12.6145 128.477 10.1028 124.861 9.09808C120.966 8.03757 116.737 8.819 112.675 11.554C109.058 8.4841 104.885 6.13981 100.211 4.35368C91.9206 1.28378 82.2945 0.111633 69.2187 0.111633V0.669798L69.163 0.111633C55.1969 1.22796 44.8474 3.4048 36.2786 7.59104C32.8288 9.26553 29.7685 11.2749 27.0976 13.6192C22.9801 11.0517 18.6957 10.4377 14.7451 11.6656C11.0727 12.782 7.90114 15.4053 6.00932 18.8101C4.11749 22.2149 3.67235 26.1221 4.95212 29.4711C6.23188 32.8201 9.18091 35.4434 13.5766 37.0621C12.1856 42.6996 11.4622 48.6719 11.351 55.2583C11.2397 61.6772 11.5179 66.8123 12.5194 78.4221C13.2428 87.0737 13.521 91.0366 13.6323 95.8368C9.84861 95.6694 6.06496 96.6741 3.22721 98.7393C2.22566 99.4649 1.11282 100.749 0.61204 101.977C-0.111307 103.54 0.166904 104.935 1.6136 105.772C1.83616 108.451 3.3385 109.679 5.61982 109.456C7.28908 109.289 9.2922 108.396 11.0171 107.168C11.4066 106.888 11.7961 106.665 12.1856 106.498C12.3525 106.442 12.4638 106.386 12.6307 106.33C12.6307 106.33 12.9646 106.219 13.0759 106.163C13.2428 106.107 13.4097 106.051 13.521 105.94C13.4097 108.563 13.1871 111.298 12.6864 117.549C12.1299 124.582 11.8517 128.434 11.7404 132.732C11.2397 148.695 13.1315 160.305 18.807 169.515C20.5875 172.417 22.7576 174.985 25.3171 177.329C24.8163 177.664 22.7019 179.227 22.0342 179.729C19.6973 181.515 18.0836 183.022 17.1377 184.697C15.9136 186.873 15.9136 189.05 17.3046 191.339L17.3603 191.395L17.4159 191.45C18.028 192.064 18.3618 192.232 18.807 192.232H18.8626H18.9739C19.0296 192.343 19.0852 192.399 19.1408 192.511C19.3078 192.79 19.4747 193.013 19.6416 193.237C21.0327 194.855 22.9801 195.246 25.5953 193.683C26.9864 192.957 27.9879 192.12 30.1023 190.334C30.158 190.278 30.158 190.278 30.2136 190.222C33.6078 187.32 35.277 186.259 37.7809 185.869L38.6712 185.701C39.005 185.869 39.3389 185.98 39.7284 186.148C47.6295 189.329 56.8105 191.06 66.1027 191.395C78.1214 191.841 89.6949 190.334 99.4879 186.762C102.103 185.813 104.551 184.697 106.888 183.469C108.335 184.027 109.559 185.199 111.896 187.934C112.007 188.046 112.007 188.046 112.063 188.157C112.174 188.269 112.174 188.325 112.23 188.381C112.341 188.548 112.508 188.66 112.619 188.827C114.456 191.004 115.68 192.064 117.071 192.678C118.907 193.46 120.688 193.069 122.524 191.395C125.751 189.385 125.974 186.259 123.859 182.687C122.357 180.175 119.742 177.552 117.293 175.878C120.187 173.031 122.691 169.626 124.638 165.775C129.98 155.058 132.039 142.555 131.927 126.48C131.872 120.787 131.649 115.819 131.037 106.33V106.051C131.315 106.163 131.593 106.33 131.872 106.554C133.596 107.726 135.6 108.675 137.269 108.842C139.55 109.065 141.053 107.837 141.275 105.158C142.666 104.265 142.944 102.87 142.221 101.307ZM124.527 10.2702C127.865 11.1633 130.759 13.5076 132.539 16.6333C134.32 19.759 134.821 23.2755 133.819 26.4012C132.762 29.6943 130.091 32.3177 125.918 33.8806C125.083 30.8665 124.082 27.9082 122.969 25.0616C124.582 23.6662 125.361 21.9359 124.082 19.4799C122.802 17.024 120.576 16.7449 118.295 17.4705C116.848 15.5728 115.235 13.8983 113.565 12.3354C117.238 9.99114 121.021 9.32135 124.527 10.2702ZM5.89803 29.1362C4.72955 26.1221 5.11904 22.5498 6.89959 19.4241C8.68013 16.2984 11.5735 13.8425 15.0233 12.8378C18.5844 11.7773 22.4237 12.2796 26.2074 14.5123C24.0373 16.4659 22.0899 18.6985 20.4206 21.1544C17.5272 19.6474 14.5782 19.3683 12.9089 22.4382C11.184 25.7314 13.1871 27.7966 16.0249 29.3595C15.6354 30.3083 15.2459 31.313 14.912 32.3177C14.5225 33.5457 14.1331 34.8295 13.7992 36.1132C9.73733 34.5504 7.06651 32.1503 5.89803 29.1362ZM12.6307 105.214C12.5751 105.214 12.2412 105.326 12.2412 105.381C12.0743 105.437 11.9074 105.493 11.7404 105.605C11.2953 105.772 10.8502 106.051 10.405 106.386C8.84706 107.502 6.95523 108.34 5.50854 108.451C3.83928 108.619 2.89336 107.893 2.72644 105.884C3.89492 105.493 4.3957 105.214 4.84083 104.544L3.95056 103.874C3.61671 104.321 3.28286 104.488 2.2813 104.823C2.22566 104.823 2.22566 104.823 2.17002 104.879C1.27974 104.377 1.11282 103.595 1.6136 102.479C2.05873 101.474 3.06029 100.302 3.89492 99.6882C6.56574 97.7346 10.1268 96.7857 13.6879 97.009C13.6879 98.4044 13.7436 99.7998 13.6879 101.139C13.6879 101.307 13.6879 101.418 13.6323 101.586C13.5766 102.367 13.5766 102.702 13.521 103.093C13.3541 104.712 13.2428 104.935 12.6307 105.214ZM29.4346 189.441C29.379 189.497 29.379 189.497 29.3233 189.553C27.2646 191.339 26.263 192.064 24.9832 192.79C22.8688 194.074 21.4222 193.795 20.4206 192.567C20.2537 192.399 20.1424 192.176 20.0311 192.009C19.9755 191.953 19.9198 191.841 19.8642 191.785C19.8642 191.785 19.8642 191.785 19.8642 191.73C19.9755 190.725 20.365 189.999 21.3665 188.436C21.4222 188.381 21.4222 188.381 21.4222 188.325C22.0342 187.432 22.3124 186.929 22.5906 186.315L21.5891 185.869C21.3665 186.371 21.0883 186.818 20.5319 187.711C20.4762 187.767 20.4762 187.767 20.4762 187.822C19.4747 189.274 19.0296 190.167 18.807 191.171H18.7513C18.7513 191.171 18.7513 191.171 18.6957 191.171H18.5844C18.4731 191.116 18.3062 191.004 18.0836 190.781C15.9136 187.32 17.6385 184.362 22.535 180.678C23.1471 180.231 25.2058 178.78 25.7622 178.334C25.8735 178.334 25.9848 178.278 26.0961 178.222C29.1008 180.789 32.6062 183.022 36.5011 184.864C36.5011 184.92 36.5568 184.976 36.6124 185.032C34.3311 185.59 32.5506 186.762 29.4346 189.441ZM122.858 183.357C124.582 186.259 124.527 188.604 122.357 190.222C122.19 189.888 122.079 189.497 121.856 188.939C121.856 188.883 121.856 188.883 121.8 188.827C121.021 186.706 120.521 185.813 119.575 184.808L118.796 185.59C119.63 186.371 120.02 187.208 120.799 189.162C120.799 189.218 120.799 189.218 120.854 189.274C121.133 189.999 121.3 190.446 121.467 190.836C120.02 192.064 118.74 192.288 117.405 191.674C116.236 191.171 115.123 190.111 113.343 188.101C113.231 187.99 113.12 187.822 113.009 187.655C112.953 187.599 112.898 187.543 112.842 187.432C112.731 187.32 112.731 187.32 112.675 187.208C110.616 184.808 109.392 183.524 108.057 182.799C111.173 181.013 113.955 179.003 116.459 176.659C118.796 178.389 121.411 180.957 122.858 183.357ZM123.637 165.272C118.851 174.929 110.394 181.738 99.0428 185.869C89.3611 189.385 77.8988 190.836 66.0471 190.39C45.6264 189.664 27.9323 182.52 19.6416 169.012C14.0774 160.026 12.2412 148.583 12.742 132.843C12.9089 128.545 13.1315 124.694 13.6879 117.661C14.3 109.735 14.4669 107.447 14.6338 103.874C14.7451 101.307 14.7451 98.6835 14.6895 95.8927C14.5782 90.9808 14.3 87.0737 13.5766 78.3105C12.5751 66.7007 12.2969 61.6214 12.4081 55.2583C12.5751 46.8858 13.6879 39.518 16.0249 32.541C19.8085 21.2102 26.7638 13.5634 36.7794 8.59573C45.1813 4.46532 55.3638 2.34429 69.2187 1.22796C82.1832 1.22796 91.6424 2.40011 99.8218 5.4142C109.615 9.04227 116.904 15.4053 121.912 25.1732C125.139 33.0992 127.031 41.6391 128.032 51.4628C128.811 58.9422 128.978 64.9703 129.034 78.6454V82.9991C129.089 89.7529 129.201 94.4972 129.479 99.2416C129.59 101.084 129.646 101.865 129.924 106.275C130.536 115.763 130.759 120.675 130.814 126.368C130.926 142.388 128.923 154.723 123.637 165.272ZM140.663 104.153C140.607 104.153 140.552 104.098 140.496 104.098C139.495 103.763 139.161 103.54 138.827 103.149L137.937 103.819C138.437 104.488 138.938 104.767 140.051 105.158C139.828 107.168 138.882 107.893 137.269 107.726C135.822 107.614 133.93 106.721 132.372 105.661C131.927 105.326 131.482 105.102 131.037 104.879C130.981 104.879 130.926 104.823 130.87 104.823C130.647 101.753 130.647 100.972 130.536 99.3533C130.481 98.3486 130.425 97.3439 130.369 96.3392C133.485 96.395 136.546 97.3439 138.882 99.0742C139.717 99.6882 140.719 100.86 141.164 101.865C141.72 102.814 141.609 103.651 140.663 104.153Z" fill="black"/>
<path d="M77.5986 58.3448C77.6542 61.1914 78.2107 64.3171 77.7099 67.3312C76.9309 68.7825 75.4842 68.9499 74.2044 69.5081C72.4239 69.229 70.9216 68.0568 70.1982 66.3824C69.7531 62.9775 70.3095 59.7402 70.4764 56.3354C70.4764 56.2237 72.5908 56.3912 74.4826 56.9494C76.0963 57.4517 77.5986 58.289 77.5986 58.3448Z" fill="white"/>
<path d="M61.8519 58.5681C60.2939 64.4846 63.9107 74.1408 69.8644 66.2149C69.4192 62.8659 69.92 59.6286 70.0869 56.3354C70.1426 56.0563 61.9076 58.1773 61.8519 58.5681Z" fill="white"/>
<path d="M78.2663 60.9681C78.155 59.2936 78.0994 58.6238 78.0994 57.7866V57.3959L77.7099 57.2842L70.699 55.1074V54.7167L69.9756 54.8841H69.92V54.9399L62.0188 56.9493L61.7406 57.0051L61.6293 57.2842C60.4052 60.2425 60.6834 64.7078 62.2414 67.4428C64.0219 70.5685 66.9153 70.6244 69.8644 67.0521C70.699 68.6708 72.257 69.7871 74.0375 70.0662H74.2044L74.3714 70.0104C74.5939 69.8987 74.8165 69.8429 75.206 69.6755C75.2616 69.6755 75.2616 69.6755 75.3173 69.6197C76.9309 69.0615 77.5986 68.615 78.155 67.5545L78.2107 67.4986V67.387C78.3776 66.3823 78.4332 65.3218 78.4332 64.1497C78.4332 63.3124 78.3776 62.531 78.2663 60.9681ZM69.3636 58.9029C69.3079 59.9076 69.2523 60.2983 69.1966 60.8565C69.0854 62.9217 69.0854 64.4845 69.2523 66.0474C66.6371 69.3964 64.5784 69.3964 63.1873 66.8847C61.8519 64.5404 61.5737 60.5774 62.5752 57.954L69.5861 56.1679C69.5305 56.8935 69.4749 57.6191 69.3636 58.9029ZM77.1535 67.1637C76.764 67.8335 76.2632 68.1684 74.9278 68.615C74.8721 68.615 74.8721 68.615 74.8165 68.6708C74.4826 68.7824 74.2601 68.894 74.0931 68.9499C72.5908 68.6708 71.311 67.6661 70.699 66.2707C70.5321 64.7636 70.5321 63.2008 70.6433 61.1356C70.699 60.5774 70.699 60.1867 70.8103 59.182C70.9215 57.8982 70.9772 57.1168 70.9772 56.3912L77.0422 58.2331C77.0422 58.9587 77.0978 59.6285 77.2091 61.0797C77.3204 62.5868 77.376 63.3682 77.376 64.2613C77.376 65.3218 77.3204 66.2707 77.1535 67.1637Z" fill="black"/>
<path d="M28.3579 34.0266C33.4769 54.0088 65.3598 48.8737 64.1357 28.8356C62.689 4.83454 23.4614 9.46731 28.3579 34.0266Z" fill="white"/>
<path d="M64.6921 28.7798C64.3583 22.9748 61.7987 18.4537 57.5699 15.6071C53.7863 13.0395 48.7785 12.0348 43.8264 12.6488C38.8742 13.3186 34.3116 15.5513 31.3069 19.0677C27.9684 22.9748 26.6886 28.11 27.8571 34.0265L28.3579 33.9149L27.8571 34.0265C33.0874 54.567 65.9162 49.5993 64.6921 28.7798ZM28.8586 33.9149C27.7458 28.2774 28.9699 23.4772 32.0859 19.8491C34.9236 16.556 39.2081 14.3791 43.9376 13.7651C48.6672 13.1512 53.3968 14.1 56.9579 16.556C60.9084 19.2351 63.3011 23.4214 63.6349 28.9472C64.8034 48.4271 33.8108 53.1157 28.8586 33.9149Z" fill="black"/>
<path d="M37.1493 36.5941C40.1301 36.5941 42.5466 33.9701 42.5466 30.7333C42.5466 27.4966 40.1301 24.8726 37.1493 24.8726C34.1685 24.8726 31.752 27.4966 31.752 30.7333C31.752 33.9701 34.1685 36.5941 37.1493 36.5941Z" fill="black"/>
<path d="M39.5975 33.58C40.3043 33.58 40.8773 32.9053 40.8773 32.073C40.8773 31.2406 40.3043 30.5659 39.5975 30.5659C38.8907 30.5659 38.3178 31.2406 38.3178 32.073C38.3178 32.9053 38.8907 33.58 39.5975 33.58Z" fill="white"/>
<path d="M73.0714 30.2907C77.022 53.2312 114.413 47.1472 109.016 24.0392C104.175 3.27549 71.736 9.02459 73.0714 30.2907Z" fill="white"/>
<path d="M109.517 23.9275C104.565 2.54985 71.1795 8.41057 72.5149 30.3464V30.4023C74.3511 41.2306 83.9772 46.7565 94.6048 44.9703C99.4457 44.1331 103.786 41.7888 106.623 38.3282C109.739 34.4769 110.852 29.5092 109.517 23.9275ZM105.789 37.6584C103.118 40.8957 99.0562 43.1284 94.4379 43.9098C84.3667 45.5843 75.3527 40.3934 73.5721 30.2348C72.348 9.58272 103.841 4.05689 108.515 24.1508C109.739 29.4534 108.738 34.0861 105.789 37.6584Z" fill="black"/>
<path d="M82.2523 35.1467C85.1717 35.1467 87.5383 32.5228 87.5383 29.286C87.5383 26.0492 85.1717 23.4252 82.2523 23.4252C79.3329 23.4252 76.9663 26.0492 76.9663 29.286C76.9663 32.5228 79.3329 35.1467 82.2523 35.1467Z" fill="black"/>
<path d="M84.7006 32.1326C85.3766 32.1326 85.9247 31.4578 85.9247 30.6255C85.9247 29.7932 85.3766 29.1185 84.7006 29.1185C84.0245 29.1185 83.4764 29.7932 83.4764 30.6255C83.4764 31.4578 84.0245 32.1326 84.7006 32.1326Z" fill="white"/>
<path d="M63.0008 46.5098C58.6051 46.9005 55.044 52.0914 57.3253 56.2219C60.33 61.6919 67.0626 55.7195 71.2358 56.2777C76.0766 56.3893 80.0272 61.4128 83.8665 57.1707C88.151 52.4822 82.0303 47.9052 77.1895 45.8958L63.0008 46.5098Z" fill="#F6D2A2"/>
<path d="M84.4229 50.2495C82.9206 48.3517 80.3054 46.6214 77.4677 45.4492L77.3564 45.3934H77.2451L63.0008 45.9516C58.0486 46.3981 54.4875 52.1472 56.8801 56.5009C57.8261 58.1754 59.1058 59.0126 60.8307 59.1243C62.1105 59.1801 63.4459 58.901 65.5047 58.1754C65.6716 58.1196 65.8942 58.0638 66.1724 57.9521C68.9545 57.0033 70.0673 56.7242 71.1801 56.8916H71.2358C72.5712 56.8916 73.684 57.2823 75.7984 58.1196C78.1354 59.0685 78.8587 59.3475 80.0272 59.4592C81.6408 59.5708 83.0319 59.0126 84.3117 57.6172C86.4817 55.2171 86.3704 52.6496 84.4229 50.2495ZM83.477 56.8358C82.4198 58.0079 81.3626 58.3987 80.0829 58.3428C79.0813 58.287 78.4136 58.0079 76.1879 57.1149C73.9622 56.166 72.7381 55.8311 71.2914 55.7753C69.9004 55.6078 68.7319 55.8869 65.7829 56.8916C65.5047 57.0033 65.2821 57.0591 65.1152 57.1149C61.0533 58.5103 59.1058 58.3987 57.7704 55.9427C55.7673 52.3147 58.8276 47.4028 63.0008 47.0121L77.0782 46.4539C79.749 47.5703 82.1416 49.1889 83.5327 50.9193C85.2019 52.9287 85.2576 54.938 83.477 56.8358Z" fill="#231F20"/>
<path d="M78.3023 44.1097C76.5774 37.7466 62.1105 38.6955 62.4443 46.2865C63.1677 51.924 79.9716 50.4169 78.3023 44.1097Z" fill="black"/>
</svg>
