<svg width="125" height="146" viewBox="0 0 125 146" fill="none" xmlns="http://www.w3.org/2000/svg">
<path d="M45.4 41.8001L45.8 51.0001L39.4 63.0001L29.4 82.6001L27.4 99.0001L34.6 122.2L51 131.4H75.8L99 113.8L109.4 86.2001L85.4 57.0001L78.6 40.6001L45.4 41.8001Z" fill="#ECEFF1"/>
<path d="M102.2 64.6C95.8 55.4 90.6001 49.8 87.8001 38.2C85.0001 26.6 88.6 29.8 86.2 19.8C85 14.6 83 11 81 8.19996C78.6 5.39996 75.8 3.79996 74.2 3.39996C70.6 1.39996 62.2001 -1.80004 51.8001 3.79996C41.0001 9.39996 42.2 21.4 44.2 45.8C44.2 47.4 43.8001 49.4 43.0001 51C41.4001 54.6 38.6001 57.8 36.2001 60.6C33.4001 64.6 30.6001 68.6 28.6001 73C23.8001 82.2 19.4001 93.8 20.6001 98.2C22.6001 97.8 47.8001 136.2 47.8001 137C49.4001 136.6 56.2 136.6 62.2 136.6C70.6 136.2 75.4 135.8 82.2 137.4C82.2 136.2 81.8001 135 81.8001 133.8C81.8001 131.4 82.2 129.4 82.6 126.6C83 124.6 83.4001 122.6 83.8001 120.2C79.8001 123.8 72.6001 127.8 65.8001 129C59.8001 130.2 49.8001 128.2 45.0001 122.2C45.4001 122.2 46.2001 122.2 46.6001 121.8C47.8001 121.4 49.0001 121 49.4001 120.2C50.6001 118.2 49.8001 116.2 49.0001 115C48.2001 113.8 42.2001 109.4 39.4001 107C36.6001 104.6 35.0001 103.4 33.4001 101.8C33.4001 101.8 31.0001 99.4 30.2001 98.6C29.4001 97.8 29.0001 97 28.6001 96.6C27.8001 94.6 27.4001 92.2 27.8001 89C28.2001 84.6 29.8001 81 31.8001 77C32.6001 75.4 34.6001 72.2 34.6001 72.2C34.6001 72.2 27.8001 89 31.4001 94.2C31.4001 94.2 31.8001 89 33.4001 83.8C34.6001 80.2 36.6001 75 39.0001 72.2C41.4001 69.4 47.4001 59 47.8001 52.6C47.8001 49.8 48.2 47 48.2 45C46.6 43.4 74.6 39.4 76.2 43.8C76.6 45.4 82.2001 59.8 85.4001 67.4C87.0001 71 89 74.2 90.2 78.2C91.4 82.6 92.2 88.6 92.2 94.6C92.2 95.8 92.2001 97.8 91.8001 99.8C92.6001 99.8 108.2 83 89.8001 69C89.8001 69 101 74.2 101.4 84.6C101.8 93 98.2 99.8 97.4 101C97.8 101 105.8 104.6 106.2 104.6C107.8 104.6 111 103.4 111 103.4C111.4 102.2 112.6 99 112.6 97.8C115.4 88.6 108.6 73.8 102.2 64.6Z" fill="#263238"/>
<path d="M51.4 38.2002C54.2718 38.2002 56.5999 34.6185 56.5999 30.2002C56.5999 25.7819 54.2718 22.2002 51.4 22.2002C48.5281 22.2002 46.2 25.7819 46.2 30.2002C46.2 34.6185 48.5281 38.2002 51.4 38.2002Z" fill="#ECEFF1"/>
<path d="M69.4 39.0001C73.1555 39.0001 76.2 34.8811 76.2 29.8001C76.2 24.7191 73.1555 20.6001 69.4 20.6001C65.6444 20.6001 62.6 24.7191 62.6 29.8001C62.6 34.8811 65.6444 39.0001 69.4 39.0001Z" fill="#ECEFF1"/>
<path d="M54.3049 30.7473C53.9725 28.1173 52.4593 26.1425 50.9251 26.3364C49.3909 26.5303 48.4167 28.8196 48.7492 31.4496C49.0816 34.0796 50.5948 36.0545 52.129 35.8605C53.6631 35.6666 54.6373 33.3774 54.3049 30.7473Z" fill="#212121"/>
<path d="M68.9999 36.5999C71.209 36.5999 72.9999 34.2718 72.9999 31.4C72.9999 28.5281 71.209 26.2 68.9999 26.2C66.7907 26.2 64.9999 28.5281 64.9999 31.4C64.9999 34.2718 66.7907 36.5999 68.9999 36.5999Z" fill="#212121"/>
<path d="M122.2 119.4C120.6 118.6 117.8 117.4 115.4 113.8C114.2 111.8 114.6 106.2 112.6 103.8C111.4 102.2 109.8 103 109.4 103C105.8 103.8 97.4 109.4 91.8 103C91 102.2 89.8 101 87.8 101C85.8 101 85 101.8 84.2 103.4C83.4 105 83.4 106.2 83.4 110.2C83.4 113.4 83.4 117 83 119.8C82.2 126.6 81 130.6 81 134.6C81 139 82.2 141.8 83.8 143C85 144.2 87 145 91.4 145C95.8 145 98.6 143.4 101.4 140.6C103.4 138.6 105 137.8 110.6 133.8C115 131 121.8 127.4 123 126.2C123.8 125.4 125 125 125 122.6C125 120.6 123.4 119.8 122.2 119.4Z" fill="#FFC107"/>
<path d="M41.8 120.6C37.8 114.2 37.4 113 34.6 109C32.2 105 27 97.3999 23.8 97.3999C21.4 97.3999 20.2 98.5999 18.6 100.2C17 101.8 15.4 105.4 12.6 107.4C10.2 109.4 3.39997 109 1.79997 111.4C0.199965 113.8 3.39997 117.4 3.39997 123.4C3.39997 125.8 1.39997 127.4 0.999966 129C0.599966 131 0.199966 132.2 0.999966 133.8C2.59997 136.2 4.59997 137 18.2 139.8C25.4 141.4 32.2 145.4 36.6 145.8C41 146.2 48.6 145.8 48.6 135C49 128.6 45.4 127 41.8 120.6Z" fill="#FFC107"/>
<path d="M49.4 48.2C47 46.6 45 45 45 42.6C45 40.2 46.6 39.4 49 37.4C49.4 37 53.8 33 58.2 33C62.6 33 67.8 35.8 69.8 36.6C73.4 37.4 77 38.2 76.6 41C76.2 45 75.8 45.8 71.8 47.8C69 48.6 63.8 53 60.2 53C58.6 53 56.2 53 54.6 52.6C53.4 52.2 51.4 50.2 49.4 48.2Z" fill="#FFC107"/>
<path d="M48.6 45C49.4 45.8 50.6 46.6 51.8 47C52.6 47.4 53.8 47.8 53.8 47.8C55.4 47.8 56.6 47.8 57.4 47.8C59.4 47.8 62.2 47 65 45.4C67.8 44.2 68.2 43.4 70.2 42.6C72.2 41.4 74.2 40.2 73.4 39.8C72.6 39.4 71.8 39.8 69 41.4C66.6 43 64.6 43.8 62.2 45C61 45.4 59.4 46.2 58.2 46.2C57 46.2 55.8 46.2 54.6 46.2C53.4 46.2 52.6 45.8 51.4 45.4C50.6 45 50.2 44.6 49.8 44.6C49 44.2 47.4 42.6 46.6 42.2C46.6 42.2 45.8 42.2 46.2 42.6C47.4 43.8 47.8 44.2 48.6 45Z" fill="#634703"/>
<path d="M60.6 36.2C61 37 61.8 37 62.2 37.4C62.6 37.8 63 37.8 63 37.8C63.4 37.4 63 36.6 62.6 36.6C62.6 35.8 60.6 35.8 60.6 36.2Z" fill="#634703"/>
<path d="M54.2 37C54.2 37.4 55 37.8001 55 37.4C55.4 37 55.7999 36.6 56.1999 36.6C56.9999 36.2 56.6 35.8 55.4 35.8C54.6 36.2 54.6 36.6 54.2 37Z" fill="#634703"/>
<path d="M93 107.8C93 108.2 93 108.6 93 109C93.8 110.6 95.8 111 97.4 111C99.8 111 102.2 109.4 103.4 107.8C103.4 107.4 103.8 107 104.2 106.6C105 105.4 105.4 104.6 105.8 104.2C105.8 104.2 105.4 103.8 105.4 103.4C105 102.6 103.8 101.8 102.2 101.4C101 101 99 100.6 98.2 100.6C94.6 100.2 92.6 101.4 91.4 102.6C91.4 102.6 91.8 102.6 91.8 103C92.6 103.8 93 104.6 93 105.8C93.4 106.6 93 107 93 107.8Z" fill="#455A64"/>
</svg>
