<svg width="207" height="186" viewBox="0 0 207 186" fill="none" xmlns="http://www.w3.org/2000/svg">
<path d="M206.956 93.0151C206.956 79.312 189.794 66.3256 163.482 58.2723C169.554 31.4562 166.855 10.1215 154.964 3.29094C152.223 1.68873 149.019 0.929782 145.519 0.929782V10.3323C147.459 10.3323 149.019 10.7117 150.326 11.4285C156.061 14.7173 158.548 27.2399 156.609 43.3464C156.145 47.3098 155.386 51.484 154.458 55.7425C146.194 53.7186 137.17 52.1586 127.682 51.1467C121.99 43.3464 116.087 36.2629 110.141 30.0648C123.888 17.2893 136.79 10.2901 145.561 10.2901V0.887619C133.965 0.887619 118.785 9.15169 103.437 23.4873C88.0881 9.23602 72.9082 1.05627 61.3124 1.05627V10.4588C70.0409 10.4588 82.986 17.4158 96.7323 30.107C90.829 36.3051 84.9256 43.3464 79.3175 51.1467C69.7879 52.1586 60.7642 53.7186 52.4996 55.7847C51.5297 51.5683 50.8129 47.4784 50.3069 43.5572C48.3251 27.4507 50.7707 14.9281 56.4632 11.5972C57.7282 10.8382 59.3727 10.5009 61.3124 10.5009V1.09844C57.7704 1.09844 54.5657 1.85738 51.7827 3.4596C39.9339 10.2901 37.2775 31.5827 43.3916 58.3145C17.164 66.4099 0.0865784 79.3541 0.0865784 93.0151C0.0865784 106.718 17.2484 119.705 43.5603 127.758C37.4883 154.574 40.187 175.909 52.0779 182.739C54.8187 184.342 58.0234 185.1 61.5654 185.1C73.1612 185.1 88.3411 176.836 103.69 162.501C119.038 176.752 134.218 184.932 145.814 184.932C149.356 184.932 152.561 184.173 155.344 182.571C167.193 175.74 169.849 154.448 163.735 127.716C189.878 119.663 206.956 106.676 206.956 93.0151ZM152.055 64.892C150.495 70.3311 148.555 75.9389 146.362 81.5466C144.633 78.1735 142.82 74.8004 140.838 71.4274C138.899 68.0543 136.833 64.7655 134.766 61.5611C140.754 62.4465 146.531 63.5428 152.055 64.892ZM132.742 109.796C129.453 115.488 126.08 120.885 122.58 125.903C116.298 126.451 109.93 126.746 103.521 126.746C97.1539 126.746 90.7868 126.451 84.5461 125.945C81.0463 120.927 77.6308 115.573 74.3418 109.923C71.1372 104.399 68.2277 98.7915 65.5712 93.1416C68.1855 87.4917 71.1372 81.8418 74.2997 76.3183C77.5887 70.6262 80.962 65.2293 84.4618 60.2118C90.7446 59.6637 97.1118 59.3686 103.521 59.3686C109.888 59.3686 116.255 59.6637 122.496 60.1697C125.996 65.1871 129.411 70.5419 132.7 76.1918C135.905 81.7153 138.814 87.323 141.471 92.973C138.814 98.6229 135.905 104.273 132.742 109.796ZM146.362 104.315C148.639 109.965 150.579 115.615 152.181 121.096C146.657 122.445 140.838 123.584 134.809 124.469C136.875 121.223 138.941 117.892 140.881 114.476C142.82 111.103 144.633 107.688 146.362 104.315ZM103.605 149.304C99.6839 145.256 95.7624 140.744 91.8831 135.811C95.6781 135.98 99.5574 136.106 103.479 136.106C107.443 136.106 111.364 136.022 115.201 135.811C111.406 140.744 107.485 145.256 103.605 149.304ZM72.2335 124.469C66.2459 123.584 60.469 122.488 54.9452 121.138C56.5054 115.699 58.4451 110.091 60.6377 104.484C62.3665 107.857 64.1797 111.23 66.1615 114.603C68.1434 117.976 70.1673 121.265 72.2335 124.469ZM103.395 36.7267C107.316 40.7744 111.238 45.2859 115.117 50.2191C111.322 50.0504 107.443 49.9239 103.521 49.9239C99.5574 49.9239 95.6359 50.0082 91.7988 50.2191C95.5938 45.2859 99.5153 40.7744 103.395 36.7267ZM72.1914 61.5611C70.1252 64.8077 68.059 68.1386 66.1194 71.5538C64.1797 74.9269 62.3665 78.3 60.6377 81.6731C58.3607 76.0232 56.4211 70.3733 54.8187 64.892C60.3426 63.5849 66.1615 62.4465 72.1914 61.5611ZM34.0306 114.35C19.1037 107.983 9.44755 99.6348 9.44755 93.0151C9.44755 86.3954 19.1037 78.0049 34.0306 71.6803C37.657 70.1203 41.6206 68.7289 45.7108 67.4218C48.1143 75.6859 51.2767 84.2873 55.1982 93.0995C51.3189 101.869 48.1986 110.429 45.8373 118.651C41.6628 117.344 37.6991 115.91 34.0306 114.35ZM56.7162 174.602C50.9816 171.313 48.4938 158.79 50.4334 142.684C50.8973 138.72 51.6563 134.546 52.5839 130.288C60.8486 132.312 69.8722 133.872 79.3597 134.884C85.0521 142.684 90.9554 149.767 96.9009 155.965C83.1546 168.741 70.2517 175.74 61.481 175.74C59.5835 175.698 57.9812 175.319 56.7162 174.602ZM156.735 142.473C158.717 158.58 156.271 171.102 150.579 174.433C149.314 175.192 147.669 175.529 145.73 175.529C137.001 175.529 124.056 168.572 110.31 155.881C116.213 149.683 122.117 142.642 127.725 134.841C137.254 133.83 146.278 132.269 154.543 130.203C155.512 134.462 156.271 138.552 156.735 142.473ZM172.969 114.35C169.343 115.91 165.379 117.301 161.289 118.608C158.886 110.344 155.723 101.743 151.802 92.9308C155.681 84.1608 158.801 75.6016 161.163 67.3796C165.337 68.6867 169.301 70.1203 173.012 71.6803C187.938 78.047 197.595 86.3954 197.595 93.0151C197.552 99.6348 187.896 108.025 172.969 114.35Z" fill="#61DAFB"/>
<path d="M103.479 112.284C114.121 112.284 122.749 103.657 122.749 93.0151C122.749 82.3733 114.121 73.7464 103.479 73.7464C92.8363 73.7464 84.2088 82.3733 84.2088 93.0151C84.2088 103.657 92.8363 112.284 103.479 112.284Z" fill="#61DAFB"/>
</svg>
