<svg width="121" height="120" viewBox="0 0 121 120" fill="none" xmlns="http://www.w3.org/2000/svg">
<path d="M114.4 97.7858C114.4 97.0348 113.792 96.4258 113.04 96.4258H102.533V6.96001C102.533 6.20895 101.925 5.60001 101.173 5.60001H85.2118C84.4601 5.60001 83.8518 6.20895 83.8518 6.96001V10.4437H64.7228V6.96001C64.7228 6.20895 64.1145 5.60001 63.3628 5.60001H47.497C46.7453 5.60001 46.137 6.20895 46.137 6.96001V8.71844L29.5275 6.71895C29.1782 6.67512 28.8103 6.77606 28.5261 6.99919C28.2419 7.22231 28.0586 7.54837 28.0148 7.9063L17.4761 95.4682C17.4356 95.8097 17.5335 96.149 17.7348 96.4258H6.96001C6.20829 96.4258 5.60001 97.0348 5.60001 97.7858V113.04C5.60001 113.791 6.20829 114.4 6.96001 114.4H113.04C113.792 114.4 114.4 113.791 114.4 113.04V97.7858ZM99.8132 67.231H86.5718V37.5155H99.8132V67.231ZM86.5718 69.951H99.8132V77.8148H86.5718V69.951ZM99.8132 34.7955H86.5718V26.931H99.8132V34.7955ZM86.5718 80.5348H99.8132V96.4258H86.5718V80.5348ZM86.5718 8.32001H99.8132V24.211H86.5718V11.8037V8.32001ZM76.2629 13.1637V40.4819C76.2629 41.2329 76.8712 41.8419 77.6229 41.8419C78.3746 41.8419 78.9829 41.2329 78.9829 40.4819V13.1637H83.8518V96.4258H78.9829V79.0526C78.9829 78.3016 78.3746 77.6926 77.6229 77.6926C76.8712 77.6926 76.2629 78.3016 76.2629 79.0526V96.4258H72.313V68.9336C72.313 68.1826 71.7048 67.5736 70.953 67.5736C70.2013 67.5736 69.593 68.1826 69.593 68.9336V96.4258H64.7228V13.1637H76.2629V13.1637ZM48.857 8.32001H62.0028V11.8037V96.4258H48.857V8.32001ZM30.5528 9.58172L45.7585 11.4125L35.5452 96.2731L20.3395 94.4429L30.5528 9.58172ZM46.137 31.0334V96.4258H38.2666L46.137 31.0334ZM111.68 111.68H8.32001V99.1458H47.497H63.3628H85.2118H101.173H111.68V111.68Z" fill="white"/>
<path d="M77.6229 74.7721C78.3746 74.7721 78.9829 74.1631 78.9829 73.4121V68.7391C78.9829 67.988 78.3746 67.3791 77.6229 67.3791C76.8712 67.3791 76.2629 67.988 76.2629 68.7391V73.4121C76.2629 74.1631 76.8712 74.7721 77.6229 74.7721Z" fill="white"/>
<path d="M70.953 61.5778C71.7048 61.5778 72.313 60.9689 72.313 60.2178V52.9975C72.313 52.2464 71.7048 51.6375 70.953 51.6375C70.2013 51.6375 69.593 52.2464 69.593 52.9975V60.2178C69.593 60.9689 70.2013 61.5778 70.953 61.5778Z" fill="white"/>
<path d="M70.953 33.8266C71.7048 33.8266 72.313 33.2177 72.313 32.4666V25.2463C72.313 24.4952 71.7048 23.8863 70.953 23.8863C70.2013 23.8863 69.593 24.4952 69.593 25.2463V32.4666C69.593 33.2177 70.2013 33.8266 70.953 33.8266Z" fill="white"/>
<path d="M58.2987 26.0883H53.2226C52.4709 26.0883 51.8626 26.6973 51.8626 27.4483C51.8626 28.1994 52.4709 28.8083 53.2226 28.8083H58.2987C59.0504 28.8083 59.6587 28.1994 59.6587 27.4483C59.6587 26.6973 59.0504 26.0883 58.2987 26.0883Z" fill="white"/>
<path d="M58.2987 18.4768H53.2226C52.4709 18.4768 51.8626 19.0858 51.8626 19.8368C51.8626 20.5879 52.4709 21.1968 53.2226 21.1968H58.2987C59.0504 21.1968 59.6587 20.5879 59.6587 19.8368C59.6587 19.0858 59.0504 18.4768 58.2987 18.4768Z" fill="white"/>
<path d="M38.8987 30.6146C39.5774 30.6146 40.1644 30.1079 40.2481 29.4173C40.3371 28.6715 39.8059 27.9942 39.0594 27.9045L33.1466 27.1927C32.4135 27.107 31.7242 27.6343 31.6339 28.38C31.5449 29.1257 32.0762 29.8031 32.8226 29.8927L38.7354 30.6046C38.7898 30.6112 38.8443 30.6146 38.8987 30.6146Z" fill="white"/>
<path d="M33.7058 22.5548L39.6186 23.2667C39.6731 23.2734 39.7275 23.2767 39.782 23.2767C40.4606 23.2767 41.0477 22.77 41.1313 22.0794C41.2203 21.3336 40.6891 20.6563 39.9427 20.5666L34.0299 19.8548C33.2981 19.7664 32.6074 20.2957 32.5171 21.0421C32.4281 21.7878 32.9594 22.4652 33.7058 22.5548Z" fill="white"/>
</svg>
