<svg width="112" height="112" viewBox="0 0 112 112" fill="none" xmlns="http://www.w3.org/2000/svg">
<path d="M69.888 28.1H62.944V35.044H69.888V28.1Z" fill="white"/>
<path d="M76.832 21.156H69.888V28.1H76.832V21.156Z" fill="white"/>
<path d="M83.9 14.088H76.956V21.032H83.9V14.088Z" fill="white"/>
<path d="M90.844 7.14398H83.9V14.088H90.844V7.14398Z" fill="white"/>
<path d="M104.856 0.200012H97.912H90.844V7.14401H97.912H104.856V14.088V21.156H111.8V14.088V7.14401V0.200012H104.856Z" fill="white"/>
<path d="M83.9 42.112H76.956V49.056H83.9V42.112Z" fill="white"/>
<path d="M90.844 35.044H83.9V41.988H90.844V35.044Z" fill="white"/>
<path d="M97.788 28.1H90.844V35.044H97.788V28.1Z" fill="white"/>
<path d="M104.856 21.156H97.912V28.1H104.856V21.156Z" fill="white"/>
<path d="M42.112 69.888V76.956H49.056H56V69.888H49.056H42.112Z" fill="white"/>
<path d="M62.944 62.944H56V69.888H62.944V62.944Z" fill="white"/>
<path d="M69.888 56H62.944V62.944H69.888V56Z" fill="white"/>
<path d="M76.832 49.056H69.888V56H76.832V49.056Z" fill="white"/>
<path d="M49.056 49.056H42.112V56H49.056V49.056Z" fill="white"/>
<path d="M56 42.112H49.056V49.056H56V42.112Z" fill="white"/>
<path d="M62.944 35.044H56V41.988H62.944V35.044Z" fill="white"/>
<path d="M35.044 76.956V70.012H28.1V76.956H21.156V83.9H14.212V90.844H7.268H0.199997V97.788V104.732V111.8H7.144H14.088H21.032V104.856V97.912H27.976V90.968H34.92V84.024H41.864V77.08H35.044V76.956ZM14.088 97.912V104.856H7.144V97.912H14.088Z" fill="white"/>
<path d="M28.1 56.496H35.044V62.944V69.888H42.112V62.944V56H35.044V49.428H28.1V56H21.156V49.428H28.1V42.484H21.156H14.088V49.428V56.496H21.156V62.944V69.888H28.1V62.944V56.496Z" fill="white"/>
<path d="M56 90.844V97.788H62.944H69.888V90.844V83.9H62.944V90.844H56Z" fill="white"/>
<path d="M49.056 83.9H42.112V90.844H49.056H56V83.9H49.056Z" fill="white"/>
<path d="M62.944 76.956H56V83.9H62.944V76.956Z" fill="white"/>
</svg>
